<?xml version="1.0" encoding="UTF-8"?>
<svg width="156px" height="141px" viewBox="0 0 156 141" version="1.1" xmlns="http://www.w3.org/2000/svg" xmlns:xlink="http://www.w3.org/1999/xlink">
    <title>853C8B2B-DCF1-442F-94B9-765AC5811B7F</title>
    <defs>
        <polygon id="path-1" points="0 0 155.367 0 155.367 140.7577 0 140.7577"></polygon>
    </defs>
    <g id="Page-1" stroke="none" stroke-width="1" fill="none" fill-rule="evenodd">
        <g id="RESSOURCES_ACCUEIL" transform="translate(-1119.000000, -784.000000)">
            <g id="Thématiques" transform="translate(98.000000, 671.000000)">
                <g id="Encar_2_Tablette" transform="translate(640.000000, 82.000000)">
                    <g id="Group-3" transform="translate(381.000000, 31.000000)">
                        <mask id="mask-2" fill="white">
                            <use xlink:href="#path-1"></use>
                        </mask>
                        <g id="Clip-2"></g>
                        <path d="M148.5257,105.2237 C148.7707,100.6507 147.6437,96.8477 145.7347,93.4967 L124.9637,56.3607 C124.1687,54.8937 122.2957,54.3557 120.8387,55.1747 L118.4527,56.4947 C116.9957,57.3267 116.4697,59.1847 117.2647,60.6527 L122.0017,69.1137 L118.5997,69.8597 L112.1617,58.3417 C111.3297,56.8617 109.4567,56.3477 108.0007,57.1677 L105.6137,58.4877 C104.1567,59.3067 103.6307,61.1407 104.4627,62.6337 L110.9497,74.2377 L107.3147,75.9737 L98.7227,60.5907 C97.8907,59.0987 96.0177,58.5847 94.5617,59.4167 L92.1987,60.7247 C90.7427,61.5567 90.1917,63.3907 91.0247,64.8707 L99.1267,79.3967 L97.3157,83.5917 L76.9857,47.1767 C76.1537,45.7217 74.2807,45.1717 72.8247,46.0027 L70.4627,47.3107 C69.0057,48.1427 68.4917,50.0007 69.2877,51.4687 L93.1297,95.6607 L93.4477,98.4847 L70.5357,92.1627 C68.5157,91.6127 66.3987,92.3707 65.6037,94.2787 L64.3547,97.4217 C63.5717,99.3657 64.5257,101.5667 66.4717,102.3487 L115.7117,122.0117 L115.8457,122.0487 L122.9817,134.4237 L155.3677,116.2167 L148.5257,105.2237 Z M61.5047,101.0947 L41.7637,104.3847 L27.5907,19.6937 L89.5097,9.3617 L97.3557,56.3167 C98.9347,57.7967 100.2687,59.5937 101.2117,62.0397 C101.3337,58.4327 103.3657,56.0727 106.4007,54.4097 L98.3837,6.4027 C97.6867,2.2327 93.7087,-0.5913 89.5227,0.1047 L89.5207,0.1037 L24.5667,10.9377 C20.4177,11.6347 17.5537,15.6087 18.2517,19.7787 L26.3287,68.1037 C35.8507,74.0217 39.9157,85.8467 33.4157,109.0557 C34.7497,112.2717 38.1887,114.2397 41.7387,113.6407 L73.4877,108.3467 C67.9187,106.4267 62.8637,103.9317 61.5047,101.0947 L61.5047,101.0947 Z M29.7937,112.4987 C38.2017,85.4507 33.5137,73.9447 22.2787,68.1367 L22.2777,68.1367 L22.2787,68.1367 C22.7807,55.5167 14.5677,44.0227 5.2287,45.2947 C-7.0353,47.0437 5.6207,60.6537 9.3657,67.0977 C19.8057,89.9997 9.8427,105.9087 19.0227,120.3987 L15.0567,127.8697 L45.0557,140.7577 C50.2947,126.5487 63.9417,125.5587 68.2127,112.0097 L38.9357,116.6817 C35.3377,113.3307 32.2537,111.7537 29.7937,112.4987 L29.7937,112.4987 Z M108.9087,32.4577 C109.7167,31.0877 109.2267,29.2657 107.8437,28.4587 L107.8437,28.4587 L105.0537,26.8447 C104.6127,26.5767 104.1237,26.4527 103.6337,26.4417 L105.5917,38.1197 L108.9087,32.4577 Z" id="Fill-1" fill="#FFFFFF" mask="url(#mask-2)"></path>
                    </g>
                </g>
            </g>
        </g>
    </g>
</svg>