<?xml version="1.0" encoding="UTF-8"?>
<svg width="202px" height="128px" viewBox="0 0 202 128" version="1.1" xmlns="http://www.w3.org/2000/svg" xmlns:xlink="http://www.w3.org/1999/xlink">
    <title>CC58BC16-4DE6-485E-9BF6-2447BEE65683</title>
    <defs>
        <polygon id="path-1" points="0 0 202 0 202 128 0 128"></polygon>
    </defs>
    <g id="Page-1" stroke="none" stroke-width="1" fill="none" fill-rule="evenodd">
        <g id="RESSOURCES_ACCUEIL" transform="translate(-428.000000, -1029.000000)">
            <g id="Thématiques" transform="translate(98.000000, 671.000000)">
                <g id="Encar_3_Droit" transform="translate(0.000000, 320.000000)">
                    <g id="Group-3" transform="translate(330.000000, 38.000000)">
                        <mask id="mask-2" fill="white">
                            <use xlink:href="#path-1"></use>
                        </mask>
                        <g id="Clip-2"></g>
                        <path d="M14.8170312,98.2316697 C12.3927887,94.5091737 11.3577189,87.7546348 13.4080486,84.5676427 C17.2140351,85.3287525 21.0212596,86.0923414 24.8235317,86.8621283 L27.5424471,83.7705848 C28.4413236,82.6747852 29.615063,81.881446 30.9472821,81.4760993 C30.9596633,81.4699014 30.976997,81.4674222 30.9893782,81.464943 L31.2989087,81.0744714 L31.9637801,80.2402257 L34.3855464,77.2019848 L34.4164994,77.2292558 L42.3999088,67.195995 L37.3793249,62.9305575 C36.6154037,63.5044888 35.8539588,64.0895764 35.0887995,64.6635077 C33.8011529,65.6279106 32.532078,66.6245429 31.2493838,67.5926645 C24.1116116,72.992329 17.0654604,78.4564523 10.0329286,83.9255339 C8.2166039,88.441369 9.58472849,96.3809582 12.730796,100.605489 L14.8170312,98.2316697 Z M46.640476,67.9310733 L35.6410019,81.5331206 L39.0916473,84.5143403 L50.0911214,70.9073346 L46.640476,67.9310733 Z M35.4788079,85.9733405 L35.0244172,85.5828689 C33.6129584,84.36311 31.5143419,84.5614448 30.3381262,86.0167263 L0.773015612,119.101447 C-0.405676345,120.559208 -0.213767466,122.724776 1.19397703,123.939576 L4.97272477,127.202183 C6.38418363,128.416984 8.48156197,128.223608 9.6590158,126.764607 L35.8997693,90.8151884 C37.0809375,89.3586673 36.8915049,87.1918598 35.4788079,85.9733405 L35.4788079,85.9733405 Z M39.3392717,93.0811633 C39.240222,93.2361123 39.1399341,93.3836238 39.0309794,93.5286562 L38.7239252,93.9513572 C47.4923038,95.8095062 56.2656349,97.5994776 64.886677,99.4105221 C65.4215456,99.5258041 66.1507994,99.9621407 66.5259503,98.994019 C66.5581414,98.9419561 66.5878564,98.8923724 66.5160453,98.8564243 C57.5743296,96.8656389 48.4481338,94.9740209 39.3392717,93.0811633 L39.3392717,93.0811633 Z M15.1104661,92.8952244 C16.3263017,93.1766119 17.5545185,93.4505618 18.779021,93.7307097 L19.4315112,92.9906731 C18.5140629,92.802255 17.5904241,92.6002015 16.6754521,92.413023 C16.1207735,92.2977409 15.4509496,92.0213118 15.1104661,92.8952244 L15.1104661,92.8952244 Z M21.8446106,90.2486947 L22.4673859,89.542127 C20.2573384,89.0661235 18.057196,88.5913597 15.8657204,88.1116374 C15.3110418,87.9876782 14.6399798,87.4794453 14.2301615,88.52938 C16.2705862,89.3152816 18.5103486,89.4888245 20.6535374,89.9821823 C21.0484983,90.071433 21.4471735,90.1606836 21.8446106,90.2486947 L21.8446106,90.2486947 Z M33.6166727,101.066617 C44.617385,103.574313 55.7592431,106.042341 66.6113807,108.445911 C67.1462493,108.563672 67.86436,109.014884 68.250654,108.045523 C68.2840832,107.995939 68.3162744,107.948834 68.2444633,107.910407 C57.029556,105.495681 45.5917868,102.778495 34.2419242,100.190226 L33.6166727,101.066617 Z M37.4375166,57.4800698 L61.6873703,78.4019102 L75.8044351,60.9397722 L51.5508671,40.0166922 L37.4375166,57.4800698 Z M34.859747,82.438023 L34.1849706,83.2685499 L37.6690454,86.2708427 L38.3425836,85.4403158 L34.859747,82.438023 Z M34.3929751,58.6428075 L52.1179268,36.7156576 C52.7307971,35.9595063 52.5203164,34.7360286 51.6511549,33.9860752 C50.7807553,33.2373614 49.5822534,33.2398406 48.9693831,33.9997107 L31.2419551,55.9231417 C30.6290848,56.6792931 30.8395655,57.9040104 31.7099651,58.6552034 C32.5791266,59.4051568 33.7801048,59.3989588 34.3929751,58.6428075 L34.3929751,58.6428075 Z M36.7441684,96.7082106 L36.1337743,97.5598106 C45.9508421,99.6720761 55.8335304,101.743435 65.4611655,103.814794 C65.9898435,103.928836 66.7252879,104.358975 67.0942482,103.394572 C67.1301537,103.343749 67.1586305,103.291686 67.0868195,103.256977 C57.0704141,101.160827 46.8819097,98.9159247 36.7441684,96.7082106 L36.7441684,96.7082106 Z M61.5685106,84.4151729 C62.4376721,85.1688451 63.6398884,85.1626471 64.2515205,84.4064957 L81.9789485,62.4793459 C82.5893426,61.721955 82.3825762,60.4997169 81.5109385,59.7497635 C80.6405389,58.9998101 79.4395607,59.0047684 78.8304048,59.763399 L61.1042149,81.6880696 C60.4925827,82.444221 60.7030634,83.6652195 61.5685106,84.4151729 L61.5685106,84.4151729 Z M189.246107,67.4860596 C189.246107,68.229815 188.627046,68.8496112 187.884173,68.8496112 L180.455442,68.8496112 L180.455442,76.2871656 C180.455442,77.0296814 179.836382,77.6494776 179.094747,77.6494776 L173.523198,77.6494776 C172.780325,77.6494776 172.161265,77.0296814 172.161265,76.2871656 L172.161265,68.8496112 L164.732534,68.8496112 C163.988422,68.8496112 163.369362,68.229815 163.369362,67.4860596 L163.369362,61.9078938 C163.369362,61.1641384 163.988422,60.5443422 164.732534,60.5443422 L172.161265,60.5443422 L172.161265,53.1067878 C172.161265,52.3630324 172.780325,51.7432362 173.523198,51.7432362 L179.094747,51.7432362 C179.836382,51.7432362 180.455442,52.3630324 180.455442,53.1067878 L180.455442,60.5443422 L187.884173,60.5443422 C188.627046,60.5443422 189.246107,61.1641384 189.246107,61.9078938 L189.246107,67.4860596 Z M176.369641,38.9754346 C162.25629,38.9754346 150.740519,50.378445 150.740519,64.6337575 C150.740519,78.88907 162.13124,90.2945596 176.369641,90.2945596 C190.608041,90.2945596 202,78.88907 202,64.6337575 C202,50.378445 190.608041,38.9754346 176.369641,38.9754346 L176.369641,38.9754346 Z M176.369641,31.0420432 C183.923422,31.0420432 190.979478,33.521228 196.551026,37.8598014 C200.142817,25.9597144 196.179589,12.3241981 184.417432,4.63872529 C172.780325,-3.04674754 157.05494,-0.815481239 147.149966,9.1012579 L140.959357,15.2992199 L134.273499,8.60542094 C121.398271,-4.28633994 99.6060887,-2.67486983 88.9582411,13.315872 C82.5645801,23.0206409 83.0635432,35.5541596 89.1253876,45.13249 C86.9252451,44.4531933 84.7312933,43.7590216 82.5583895,43.006589 C80.2901504,42.221927 77.5997117,41.321983 75.1952792,41.3281809 C72.1730238,41.3318997 69.0455282,41.7744342 66.1309894,42.623555 C64.7591505,43.0189849 63.4281695,43.6053121 62.1368085,44.3118798 L76.4767352,56.4908751 C77.0264613,56.01983 77.664094,55.651671 78.3673472,55.4372215 C80.2195774,54.8682486 82.2500972,55.3194603 83.8113688,56.6433449 C86.3074223,58.7630479 86.7605749,62.4719084 84.8191999,64.9101866 L67.2613946,86.9774104 C66.5878564,87.8265311 65.6877418,88.441369 64.6563864,88.7587046 C62.8078705,89.3264379 60.7736364,88.8777055 59.2136029,87.5513416 C56.9948886,85.6659216 56.3968758,82.5297529 57.6473788,80.1435375 L51.763824,75.1467406 L43.7816527,85.1800014 L41.3586484,88.2219611 L41.2620749,88.3434412 L40.5712029,89.2123954 C40.5612979,89.4776682 40.5390117,89.7491389 40.50063,90.0082138 C49.1687207,91.7411639 57.8454783,93.4641973 66.5494746,95.1450846 C79.6946138,84.4808713 92.9264215,73.877398 106.087656,63.2255805 L116.674836,73.8538457 C102.658059,85.825829 88.3428946,97.893261 74.4078337,109.924745 C73.5337197,110.677177 71.900637,112.330794 71.2431944,112.465909 C70.6649915,112.592348 68.830095,111.94528 67.8482644,111.717195 C55.8421972,108.926873 43.8485113,106.148946 31.9303508,103.410687 L29.9790709,106.127873 C44.2323291,109.402876 58.4893016,112.670442 72.6583676,116.079321 L118.692974,75.8805793 L138.236727,95.5008477 C139.845047,97.1123178 142.321291,97.1123178 143.930849,95.5008477 L151.978641,87.4434971 C146.407093,81.4934536 142.940352,73.4361031 142.940352,64.6337575 C142.940352,46.1650704 157.922864,31.0420432 176.369641,31.0420432 L176.369641,31.0420432 Z" id="Fill-1" fill="#FFFFFF" mask="url(#mask-2)"></path>
                    </g>
                </g>
            </g>
        </g>
    </g>
</svg>