<?xml version="1.0" encoding="UTF-8"?>
<svg width="126px" height="126px" viewBox="0 0 126 126" version="1.1" xmlns="http://www.w3.org/2000/svg" xmlns:xlink="http://www.w3.org/1999/xlink">
    <title>17A4F0A6-F37F-4A3D-8979-681E8042CD4A</title>
    <defs>
        <polygon id="path-1" points="0 0 126 0 126 126 0 126"></polygon>
    </defs>
    <g id="Page-1" stroke="none" stroke-width="1" fill="none" fill-rule="evenodd">
        <g id="RESSOURCES_ACCUEIL" transform="translate(-1149.000000, -1268.000000)">
            <g id="Thématiques" transform="translate(98.000000, 671.000000)">
                <g id="Encar_6_Énergie" transform="translate(640.000000, 559.000000)">
                    <g id="Group-3" transform="translate(411.000000, 38.000000)">
                        <mask id="mask-2" fill="white">
                            <use xlink:href="#path-1"></use>
                        </mask>
                        <g id="Clip-2"></g>
                        <path d="M46.9467432,119.437231 C42.1924069,118.088181 37.6184224,116.135209 33.346473,113.630452 C32.3099929,113.022184 30.9823423,113.369766 30.3717534,114.405992 C29.7655104,115.442219 30.1110037,116.771717 31.1474838,117.379984 C35.7366787,120.069395 40.6518107,122.167916 45.760332,123.616896 C45.9580672,123.673378 46.1579753,123.701619 46.3535376,123.701619 C47.3009282,123.701619 48.1722668,123.075973 48.4417082,122.120124 C48.7719912,120.964416 48.1027336,119.763089 46.9467432,119.437231 M26.7408138,23.4809041 C26.5148307,21.460588 26.3192684,19.4337547 26.0650374,17.4156109 C26.0411354,17.228786 26.0063687,17.0463058 25.9563917,16.8725152 C25.8129794,16.3728671 25.5457109,15.929701 25.0893989,15.6125331 C24.0724751,14.9043362 22.5231872,15.34533 21.3541594,15.4756729 C20.0656212,15.6190502 18.7770831,15.7624275 17.488545,15.9058048 C14.4703671,16.2403517 11.4521892,16.5770711 8.43401134,16.9116181 C6.98467755,17.0723744 5.53317084,17.2331307 4.08166413,17.3960595 C2.88873422,17.5285748 2.0304331,18.601732 2.16298087,19.7943702 C2.29552863,20.9870085 3.37329409,21.8472721 4.56187818,21.7125844 L18.2686212,20.1897439 C17.866632,20.6394272 17.4494325,21.0934552 17.0604808,21.5387937 C16.2782317,22.4468498 16.3803587,23.8197958 17.2886368,24.6018537 C17.6971447,24.9559521 18.2034337,25.1275704 18.7053769,25.1275704 C19.3159658,25.1275704 19.9243818,24.8712292 20.3524459,24.3715811 C20.9521702,23.6764186 21.5931799,22.9725665 22.2341896,22.2687144 L23.8899503,37.169089 C24.0138064,38.2813491 24.9546783,39.1025098 26.0454812,39.1025098 C26.125879,39.1025098 26.2062769,39.0981651 26.2888476,39.0894755 C27.4817775,38.9569602 28.3400786,37.883803 28.2075309,36.6911648 C28.0423894,35.2030825 27.8772479,33.7128278 27.7121064,32.2247454 C27.3883422,29.3094075 27.064578,26.396242 26.7408138,23.4809041 M76.3006416,120.151945 C71.5115386,121.253343 66.5138359,121.748647 61.5748018,121.640027 C60.3905636,121.590063 59.3801584,122.558945 59.3519106,123.760273 C59.3214898,124.959429 60.2710533,125.95438 61.4726749,125.982621 C61.976791,125.995655 62.48308,126 62.9915419,126 C67.8197573,126 72.6284165,125.456904 77.278453,124.385919 C78.4496538,124.116544 79.1797529,122.949974 78.9081387,121.781232 C78.6365244,120.614663 77.4696694,119.893432 76.3006416,120.151945 M123.589774,102.116822 L109.746137,103.654869 C110.174202,103.157393 110.619649,102.659918 111.025984,102.166787 C111.788677,101.241352 111.656129,99.8705779 110.728295,99.1102439 C109.802633,98.3477375 108.433697,98.4802529 107.671004,99.4078604 C107.110392,100.087816 106.506322,100.776462 105.904425,101.460762 L104.259529,86.6581449 C104.126981,85.4655066 103.047043,84.6008982 101.860632,84.7399307 C100.667702,84.8724461 99.8094007,85.9456033 99.9419484,87.1382415 C100.115782,88.6958401 100.289615,90.2534387 100.461275,91.8110372 C100.793731,94.8067533 101.126187,97.800297 101.458643,100.793841 C101.597709,102.047306 101.736776,103.298598 101.875842,104.552063 C101.999698,105.655634 101.932338,107.106786 102.73197,107.943153 C102.823233,108.036565 102.918841,108.123461 103.025314,108.201667 C104.077004,108.972862 105.682788,108.479732 106.903966,108.342871 C108.222925,108.195149 109.544056,108.0496 110.863015,107.90405 C113.905095,107.565158 116.947175,107.228439 119.989255,106.889547 C121.349499,106.73748 122.709744,106.587586 124.067815,106.435519 C125.260745,106.303004 126.119046,105.229847 125.986498,104.037208 C125.856124,102.842398 124.776185,101.982134 123.589774,102.116822 M12.5277818,92.9450211 C11.9150199,91.9131392 10.5808506,91.5764199 9.54871634,92.1890319 C8.51658208,92.8016438 8.17978038,94.135487 8.79254219,95.1673689 C11.5065121,99.7272007 14.7941313,103.939451 18.5663104,107.688984 C18.9900287,108.110426 19.5441218,108.321148 20.0982149,108.321148 C20.6566539,108.321148 21.2150929,108.106082 21.6388111,107.680295 C22.4840748,106.828721 22.4797289,105.453602 21.6301195,104.606373 C18.1186901,101.113181 15.054881,97.1920298 12.5277818,92.9450211 M82.5434242,58.6561287 L70.0100549,58.6561287 L78.1497916,20.0007466 C78.3562184,19.0188295 77.8629669,18.0217058 76.9568617,17.5915739 C76.0507564,17.1570973 74.9664722,17.4069214 74.3341542,18.1846345 L37.3946122,63.8046763 C36.868767,64.4563912 36.7622942,65.351413 37.122998,66.1074022 C37.4837017,66.8633915 38.2463946,67.3434881 39.0829666,67.3434881 L51.4750965,67.3434881 L41.327587,105.894596 C41.0711831,106.874341 41.5231493,107.899705 42.4205629,108.371112 C42.7399813,108.538386 43.0854746,108.618764 43.4287951,108.618764 C44.0480756,108.618764 44.6543187,108.353733 45.0802099,107.860602 L84.1926661,62.2405606 C84.7445863,61.5975352 84.8706153,60.6894792 84.5164303,59.9182832 C84.1622453,59.151432 83.3930336,58.6561287 82.5434242,58.6561287 M96.5109169,111.184348 C94.5118358,112.579018 92.404109,113.858552 90.250751,114.988191 C89.1881959,115.544321 88.7775151,116.858613 89.3359541,117.920908 C89.7249057,118.66169 90.478907,119.085305 91.263329,119.085305 C91.6023036,119.085305 91.947797,119.004927 92.2693883,118.837653 C94.5857149,117.623291 96.8477186,116.248173 98.9989037,114.749229 C99.9832338,114.062756 100.224427,112.709361 99.5377864,111.723099 C98.8489726,110.741182 97.495247,110.495703 96.5109169,111.184348 M31.5603375,13.4640463 C33.6159144,12.1562718 35.7736182,10.9679783 37.9769533,9.9274069 C39.0634104,9.41472452 39.5262411,8.11998429 39.0156063,7.0359652 C38.5027985,5.94977373 37.2055687,5.49140093 36.1234574,5.99756615 C33.7549809,7.11417099 31.4364814,8.39370454 29.2288006,9.79706392 C28.2162225,10.4400893 27.9163604,11.7847943 28.5617159,12.7949524 C28.9745696,13.4466673 29.6785938,13.8007976 30.3978284,13.8007976 C30.7954717,13.8029381 31.1974608,13.6943189 31.5603375,13.4640463 M120.506409,74.0431171 C119.532943,78.6051213 117.903257,83.1128159 115.665156,87.4423751 C115.113236,88.5090151 115.530435,89.8189621 116.597336,90.3707473 C116.916754,90.5358484 117.257902,90.6140542 117.592531,90.6140542 C118.379126,90.6140542 119.137473,90.1860948 119.524252,89.438795 C121.940532,84.7659993 123.700593,79.891172 124.756629,74.9490008 C125.006514,73.775914 124.259032,72.6223787 123.083485,72.3703823 C121.912284,72.1183858 120.756294,72.8700303 120.506409,74.0431171 M113.227146,32.6918078 C113.635654,33.3674189 114.352716,33.7388964 115.087161,33.7388964 C115.469594,33.7388964 115.858545,33.6389667 116.210557,33.4239008 C117.238346,32.8025993 117.566456,31.4687562 116.945002,30.441219 C114.289701,26.0530055 111.09769,21.988477 107.453713,18.3605975 C106.604103,17.5133681 105.228649,17.5133681 104.381212,18.3671146 C103.533776,19.2165164 103.535949,20.5916348 104.387731,21.4388641 C107.77965,24.8212644 110.75437,28.6055555 113.227146,32.6918078 M121.57331,59.8270431 C121.634151,60.9849232 122.594579,61.8842898 123.741878,61.8842898 C123.78099,61.8842898 123.820103,61.8842898 123.859215,61.8821174 C125.056491,61.8191183 125.977807,60.7959259 125.912619,59.5967705 C125.638832,54.4525677 124.737073,49.3648469 123.233416,44.4704681 C122.879231,43.3234499 121.662399,42.6825969 120.517273,43.0323506 C119.369975,43.386449 118.726792,44.6008111 119.078804,45.7478293 C120.478161,50.2989715 121.316906,55.0369387 121.57331,59.8270431 M3.32983581,51.7110205 C3.51453352,51.7588129 3.70140414,51.7848815 3.88392894,51.7848815 C4.84652994,51.7848815 5.72656021,51.1396837 5.98296409,50.1642838 C7.19327732,45.5805558 9.0989231,40.9903106 11.6499244,36.5260637 C12.2453029,35.4854922 11.8824262,34.1581663 10.8416003,33.5629333 C9.79860148,32.9677004 8.4731238,33.3304884 7.8777453,34.3710598 C5.13770045,39.1655089 3.08646941,44.1055078 1.78054796,49.0563685 C1.47633997,50.216421 2.16949961,51.4068868 3.32983581,51.7110205 M4.34458676,64.7735591 C4.30982013,63.5744037 3.36460244,62.5990038 2.10865801,62.6663476 C0.909209353,62.7032781 -0.0338354239,63.7025743 0.000931203817,64.9017297 C0.159553943,70.2305851 0.987434266,75.5094756 2.46284303,80.5906793 C2.73880314,81.5400107 3.60579592,82.1591398 4.54884069,82.1591398 C4.7487488,82.1591398 4.95300274,82.1308988 5.15508376,82.0722445 C6.30672831,81.7376975 6.96946715,80.532025 6.63701127,79.380662 C5.26372948,74.6513843 4.49234492,69.7374541 4.34458676,64.7735591 M51.2317301,5.48053901 C51.3686237,5.48053901 51.5098631,5.46750471 51.6511025,5.43926374 C56.3141765,4.5268629 61.1880231,4.18579878 65.9293219,4.41824375 C67.1113873,4.44213996 68.1478674,3.55363534 68.2065361,2.35447996 C68.2652047,1.15532457 67.3417162,0.136476969 66.1422675,0.0778226297 C61.0576482,-0.176346175 55.8230978,0.192958926 50.8145305,1.17270363 C49.636811,1.40297623 48.8697723,2.54564965 49.1001012,3.72308121 C49.3065281,4.76148026 50.2148062,5.48053901 51.2317301,5.48053901 M80.0228437,6.8578298 C84.5946552,8.24163773 88.9926336,10.1924376 93.0994415,12.6515751 C93.4492807,12.8601239 93.8338865,12.9600535 94.2141465,12.9600535 C94.9529374,12.9600535 95.672172,12.5842312 96.0806798,11.9042754 C96.6977875,10.8745659 96.3631587,9.54072274 95.3331973,8.92376598 C90.9221815,6.27997594 86.1939201,4.18579878 81.2831339,2.69771646 C80.1358352,2.34796281 78.9211761,2.99967769 78.5735099,4.14669588 C78.2258436,5.29805885 78.8755449,6.51024853 80.0228437,6.8578298" id="Fill-1" fill="#FFFFFF" mask="url(#mask-2)"></path>
                    </g>
                </g>
            </g>
        </g>
    </g>
</svg>