<?xml version="1.0" encoding="UTF-8"?>
<svg width="134px" height="141px" viewBox="0 0 134 141" version="1.1" xmlns="http://www.w3.org/2000/svg" xmlns:xlink="http://www.w3.org/1999/xlink">
    <title>41747126-DF13-4B79-A9BB-17D39B6E4EB0</title>
    <defs>
        <polygon id="path-1" points="0 2.40543879e-14 134 2.40543879e-14 134 141 0 141"></polygon>
    </defs>
    <g id="Page-1" stroke="none" stroke-width="1" fill="none" fill-rule="evenodd">
        <g id="RESSOURCES_ACCUEIL" transform="translate(-1148.000000, -1025.000000)">
            <g id="Thématiques" transform="translate(98.000000, 671.000000)">
                <g id="Encar_4_Jeunes" transform="translate(640.000000, 320.000000)">
                    <g id="Group-3" transform="translate(410.000000, 34.000000)">
                        <mask id="mask-2" fill="white">
                            <use xlink:href="#path-1"></use>
                        </mask>
                        <g id="Clip-2"></g>
                        <path d="M104.935687,134.567827 L28.557377,134.567827 L28.557377,88.5270108 C28.557377,86.4957983 30.2471627,84.972389 32.1059269,84.972389 L101.387137,84.972389 C103.41657,84.972389 104.935687,86.665066 104.935687,88.5270108 L104.935687,134.567827 Z M131.465322,116.117647 L100.711223,73.2929172 C100.711223,73.2929172 96.6574275,65.5066026 87.1929382,65.1680672 L46.4691047,65.1680672 C36.8373266,65.5066026 32.9508197,73.2929172 32.9508197,73.2929172 L2.02943253,116.117647 C0.67591425,117.979592 0,120.34934 0,122.888355 C0,129.489796 5.40900378,134.906363 11.9974779,134.906363 L28.7263556,134.906363 L28.7263556,137.953181 C28.7263556,139.645858 30.0781841,141 31.7679697,141 L102.23203,141 C103.921816,141 105.273644,139.645858 105.273644,137.953181 L105.273644,134.906363 L122.004212,134.906363 C128.592686,134.906363 134,129.489796 134,122.888355 C133.493064,120.34934 132.81715,117.979592 131.465322,116.117647 L131.465322,116.117647 Z M66.7465322,102.406963 C62.3530895,102.406963 58.6372509,105.961585 58.6372509,110.531813 C58.6372509,115.102041 62.184111,118.656663 66.7465322,118.656663 C71.1399748,118.656663 74.8575032,114.932773 74.8575032,110.531813 C74.8575032,106.130852 71.1399748,102.406963 66.7465322,102.406963 L66.7465322,102.406963 Z M66.7465322,13.3721489 C76.38,13.3721489 84.6582598,18.7887155 88.8827238,26.9135654 L91.9260277,25.2208884 L91.9260277,44.517407 C91.9260277,49.0876351 95.6418663,52.6422569 100.036999,52.6422569 L100.711223,52.6422569 L100.711223,48.2412965 L100.542245,48.2412965 C98.3472131,48.2412965 96.4867591,46.3793517 96.4867591,44.1788715 L96.4867591,22.6818727 L103.754527,18.7887155 L66.7465322,0 L29.740227,19.635054 L44.4413619,27.2521008 C48.665826,18.9579832 56.9474653,13.3721489 66.7465322,13.3721489 L66.7465322,13.3721489 Z M66.7465322,17.6038415 C55.2576797,17.6038415 45.7931904,27.0828331 45.7931904,38.7623049 C45.7931904,50.4417767 55.0870113,59.9207683 66.7465322,59.9207683 C78.2370744,59.9207683 87.7015637,50.4417767 87.7015637,38.7623049 C87.7015637,27.0828331 78.2370744,17.6038415 66.7465322,17.6038415 L66.7465322,17.6038415 Z" id="Fill-1" fill="#FFFEFE" mask="url(#mask-2)"></path>
                    </g>
                </g>
            </g>
        </g>
    </g>
</svg>