<?xml version="1.0" encoding="UTF-8"?>
<svg width="128px" height="118px" viewBox="0 0 128 118" version="1.1" xmlns="http://www.w3.org/2000/svg" xmlns:xlink="http://www.w3.org/1999/xlink">
    <title>A86F3452-C1BE-4C3A-ACDE-1D1233F60FC4</title>
    <g id="Page-1" stroke="none" stroke-width="1" fill="none" fill-rule="evenodd">
        <g id="RESSOURCES_ACCUEIL" transform="translate(-455.000000, -798.000000)" fill="#FFFFFF">
            <g id="Thématiques" transform="translate(98.000000, 671.000000)">
                <g id="Encar_1-Ordinateur" transform="translate(0.000000, 82.000000)">
                    <path d="M357,157 C357,160.297139 359.120224,163 361.708056,163 L468.416787,163 L480.29713,163 C482.882369,163 485,160.297139 485,157 L357,157 Z M470,60.1639999 C470,57.3244037 468.004435,55 465.569053,55 L376.426635,55 C373.992978,55 372,57.3223912 372,60.1639999 L372,110.832981 C372,113.675596 373.992978,116 376.426635,116 L465.569053,116 C468.003573,116 470,113.675596 470,110.832981 L470,60.1639999 Z M438,144 L435.400758,136 L407.401278,136 L405,144 L438,144 Z M485,155 L357,155 C357,152.284052 357,150.133159 357.00605,150.133159 C357.00605,150.133159 357.675049,147.760536 358.490985,144.854533 L362.942332,129.046241 C363.759133,126.140238 364.428132,121.25807 364.428132,118.196753 L364.428132,50.5626875 C364.428132,47.5003483 366.548356,45 369.137052,45 L472.334837,45 C474.924397,45 477.037707,47.5003483 477.037707,50.5626875 L477.037707,118.196753 C477.037707,121.25807 477.749922,126.119802 478.621176,129.007413 L483.41048,144.893361 C484.288649,147.77382 485,150.133159 485,150.133159 L485,155 Z" id="Fill-1"></path>
                </g>
            </g>
        </g>
    </g>
</svg>