<svg width="42" height="21" viewBox="0 0 42 21" fill="none" xmlns="http://www.w3.org/2000/svg">
<path d="M30.4618 1.12034C29.8334 1.75171 29.8359 2.77292 30.4672 3.40131L36.1255 9.03227L1.96764 9.03227C1.07683 9.03227 0.354736 9.75437 0.354736 10.6452C0.354736 11.536 1.07683 12.2581 1.96764 12.2581L36.1255 12.2581L30.4672 17.889C29.8358 18.5174 29.8334 19.5386 30.4618 20.17C31.0902 20.8015 32.1114 20.8038 32.7428 20.1755L41.1705 11.7884C41.1711 11.7879 41.1715 11.7874 41.172 11.7869C41.8018 11.1585 41.8038 10.134 41.1721 9.50348C41.1715 9.503 41.1711 9.50244 41.1706 9.50195L32.7429 1.11485C32.1116 0.486629 31.0903 0.488806 30.4618 1.12034Z" fill="#00C1E6"/>
</svg>
