<svg xmlns="http://www.w3.org/2000/svg" width="29" height="29" viewBox="0 0 29 29">
    <g fill="none" fill-rule="evenodd">
        <g fill="#90989E">
            <g>
                <path d="M14.5 1.365c7.233 0 13.135 5.902 13.135 13.135S21.733 27.635 14.5 27.635 1.365 21.733 1.365 14.5 7.267 1.365 14.5 1.365M14.5 29C22.484 29 29 22.484 29 14.5S22.484 0 14.5 0 0 6.516 0 14.5 6.516 29 14.5 29" transform="translate(-146 -796) translate(146 796)"/>
                <path d="M21.289 20L22 18.762 15.422 14.939 15.422 5 14 5 14 15.376 14.356 15.995z" transform="translate(-146 -796) translate(146 796)"/>
            </g>
        </g>
    </g>
</svg>
