<svg xmlns="http://www.w3.org/2000/svg" width="56" height="56" viewBox="0 0 56 56">
    <path fill="#4EC6B0" fill-rule="nonzero" d="M22.778 28L1.247 6.47C-.322 4.9-.424 2.46 1.017 1.017 2.46-.424 4.902-.322 6.47 1.247L28 22.777l21.53-21.53c1.57-1.569 4.01-1.671 5.452-.23 1.442 1.443 1.34 3.884-.229 5.452L33.223 28l21.53 21.53c1.569 1.57 1.671 4.01.23 5.452-1.443 1.442-3.884 1.34-5.452-.229L28 33.223 6.47 54.752c-1.57 1.569-4.01 1.671-5.452.23-1.442-1.443-1.34-3.884.229-5.452L22.777 28z"/>
</svg>
