<?xml version="1.0" encoding="UTF-8"?>
<svg width="29px" height="29px" viewBox="0 0 29 29" version="1.1" xmlns="http://www.w3.org/2000/svg" xmlns:xlink="http://www.w3.org/1999/xlink">
    <title>EBC0D916-E67A-407F-8566-DC9CAB257C2D</title>
    <g id="Page-1" stroke="none" stroke-width="1" fill="none" fill-rule="evenodd">
        <g id="RESSOURCES_survol_Carte" transform="translate(-628.000000, -1275.000000)" fill="#90989E">
            <g id="Group-6" transform="translate(628.000000, 1275.000000)">
                <path d="M14.5,1.36470588 C21.7329412,1.36470588 27.6352941,7.26705882 27.6352941,14.5 C27.6352941,21.7329412 21.7329412,27.6352941 14.5,27.6352941 C7.26705882,27.6352941 1.36470588,21.7329412 1.36470588,14.5 C1.36470588,7.26705882 7.26705882,1.36470588 14.5,1.36470588 M14.5,29 C22.4835294,29 29,22.4835294 29,14.5 C29,6.51647059 22.4835294,0 14.5,0 C6.51647059,0 0,6.51647059 0,14.5 C0,22.4835294 6.51647059,29 14.5,29" id="Fill-1"></path>
                <polygon id="Fill-4" points="21.2888889 20 22 18.7621359 15.4222222 14.9393204 15.4222222 5 14 5 14 15.3762136 14.3555556 15.9951456"></polygon>
            </g>
        </g>
    </g>
</svg>