<svg width="146" height="48" viewBox="0 0 146 48" fill="none" xmlns="http://www.w3.org/2000/svg">
<path fill-rule="evenodd" clip-rule="evenodd" d="M10.5316 28.7992C9.71101 28.8554 8.99968 28.2373 8.94261 27.4158C8.88555 26.5952 9.50444 25.8838 10.3251 25.8268C11.1457 25.7697 11.857 26.3886 11.9149 27.2093C11.972 28.0307 11.3523 28.7421 10.5316 28.7992Z" fill="#FDD145"/>
<path fill-rule="evenodd" clip-rule="evenodd" d="M1.59392 28.799C0.773284 28.8562 0.060861 28.238 0.0037469 27.4167C-0.0541187 26.5963 0.565118 25.884 1.38576 25.8268C2.2064 25.7696 2.91807 26.3886 2.97593 27.2099C3.03305 28.0303 2.41456 28.7411 1.59317 28.799" fill="#5A35D3"/>
<path fill-rule="evenodd" clip-rule="evenodd" d="M0.000798277 27.1123L10.3193 15.4025L2.56007 12.1227C1.98053 11.8622 1.61092 11.2719 1.6237 10.6245C1.65084 9.96965 2.06514 9.3973 2.66944 9.17767L28.6693 0.0796948C29.2329 -0.0827836 29.8133 0.00131324 30.2196 0.349131C30.6259 0.695317 30.8622 1.30441 30.7688 1.81144L25.3405 28.5004C25.2607 29.1927 24.7234 29.6655 24.0928 29.7732C23.4638 29.8786 22.8068 29.6124 22.4499 29.0719L18.061 22.0608L15.2918 25.1838L12.9121 23.0961L17.032 18.381C17.3274 18.0478 17.6978 17.8984 18.144 17.8682L18.3995 17.8511C18.912 17.8772 19.3766 18.1589 19.6001 18.5826L23.0471 24.031L27.0951 3.93835L7.56926 10.8384L13.617 13.4258C14.0776 13.6446 14.4217 13.9965 14.5231 14.4897C14.622 14.9844 14.5318 15.489 14.1782 15.8875L2.43634 29.1331L0 27.1132L0.000798277 27.1123Z" fill="#5A35D3"/>
<path fill-rule="evenodd" clip-rule="evenodd" d="M14.5055 25.8194C13.6849 25.8774 12.9732 25.2575 12.9154 24.4379C12.8575 23.6167 13.4767 22.9043 14.2988 22.8471C15.118 22.7907 15.8304 23.409 15.8875 24.2302C15.9453 25.0515 15.3261 25.763 14.5055 25.8194Z" fill="#5A35D3"/>
<path fill-rule="evenodd" clip-rule="evenodd" d="M78.2211 24.7364C79.0807 24.7364 79.7688 25.0737 79.9412 26.4227C80.1128 27.7726 80.456 29.1208 82.1768 28.7828C83.8968 28.4471 83.5528 26.2533 82.8648 24.3992C82.1768 22.5434 80.2844 21.363 77.8771 21.363C75.4699 21.363 72.8895 23.3882 72.8895 28.7828C72.8895 34.1806 76.1018 34.764 78.0487 36.0363C79.5972 37.0481 80.2844 37.8912 80.1128 41.0952C79.9652 43.8373 78.5651 43.9628 77.5339 43.9628C76.5011 43.9628 75.9847 42.9502 75.9847 42.2757C75.9847 41.6019 76.1571 39.5776 74.2647 39.5776C72.3731 39.5776 72.5455 41.6019 72.5455 42.2757C72.5455 42.9502 73.2327 47.1668 77.5339 47.1668C81.8328 47.1668 83.3804 43.9628 83.3804 41.4333C83.3804 38.9038 83.3804 36.71 81.8328 35.0245C80.2844 33.3374 78.3775 32.5238 77.7047 32.157C76.1571 31.313 76.214 29.9696 76.3287 28.2769C76.5011 25.7482 76.5011 24.7364 78.2211 24.7364ZM59.1301 38.5658L59.3017 35.8669V32.8315L59.1293 29.4589V24.7364C59.1293 24.7364 58.7853 21.1944 60.6777 21.1944C62.5702 21.1944 63.085 24.567 63.429 25.5796C63.7738 26.5914 65.3214 32.6629 65.3214 32.6629L66.8698 36.5422L67.0414 31.9884L66.8698 26.0847V23.5552C66.8698 23.5552 66.525 20.8571 68.589 20.8571C70.6531 20.8571 70.3091 23.8925 70.3091 24.7364V36.2049C70.3091 36.5422 70.4807 40.7588 70.4807 40.9266C70.4807 41.0952 71.1695 46.9981 68.933 46.9981C67.213 46.9981 66.8698 45.4804 66.3534 44.3C66.0503 43.6071 64.2886 39.4081 64.2886 39.4081L62.741 35.3602L62.5686 39.7462L62.3978 42.4451C62.3978 42.4451 62.9126 47.3354 60.3329 46.9981C58.2593 46.728 59.1301 43.4569 59.1301 42.1062V38.565V38.5658ZM56.7221 34.3492C56.7221 26.4219 56.5497 21.0249 50.53 21.0249C48.3786 21.0249 45.9553 22.7256 45.1984 26.2533C44.5096 29.4589 44.9835 31.2955 44.8536 35.3618C44.5096 46.1558 48.1212 47.6734 50.7016 47.6734C57.2369 47.6734 56.7221 38.0599 56.7221 34.3492ZM53.2813 33.1688C53.2813 40.0834 53.1097 44.1322 50.7016 44.1322C47.6056 44.1322 47.9496 35.3618 47.9496 31.9884C47.9496 28.6157 48.2944 24.3984 50.7016 24.3984C52.9373 24.3984 53.2813 26.2541 53.2813 33.1688ZM41.4135 34.3492C41.5859 34.1814 42.4463 33.3374 42.4463 30.8079C42.4463 28.2785 42.4463 25.9176 42.2731 24.9051C42.0206 23.417 41.2788 22.2749 39.0063 21.5316C38.4899 21.363 37.5437 21.3974 36.49 21.3974C35.4372 21.3974 34.2761 21.363 33.3298 21.5316C32.1326 21.7458 32.1262 24.0619 32.1262 24.2305V28.953L31.9538 32.3248L31.7822 35.8669V45.6491L31.9538 46.1558L32.2978 46.6617L32.6418 46.8295L32.9858 46.9981L34.7059 47.1667H37.1131C37.1131 47.1667 41.5859 47.3354 42.2747 43.2882C42.962 39.2395 42.2747 36.3736 41.9299 36.0363C41.9299 36.0363 41.7575 35.3618 41.2411 34.8551C41.0695 34.6873 41.0695 34.6873 41.4135 34.3492ZM35.2215 42.4435V36.3736C35.2215 36.3736 35.5655 36.2049 37.1139 36.3736C38.6615 36.5414 38.8339 37.3854 38.8339 37.3854L39.0063 38.5658V40.2521C39.1779 43.6255 38.6615 43.1196 38.4899 43.4569C38.3175 43.7941 35.7379 43.7941 35.3939 43.7941C35.0499 43.7941 35.2215 42.9502 35.2215 42.4451V42.4435ZM39.0063 27.604C39.0063 27.604 39.1779 28.9522 39.1779 30.6393C39.1779 32.3248 37.9743 32.6629 37.9743 32.6629C37.9743 32.6629 36.5983 32.8307 35.9103 32.8307C35.2215 32.8307 35.3939 32.157 35.3939 32.157V29.7954L35.5655 25.5796C35.3939 24.7364 35.9103 24.7364 35.9103 24.7364C35.9103 24.7364 37.9743 24.7364 38.6615 24.9043C39.3503 25.0737 39.0063 27.604 39.0063 27.604Z" fill="#5A35D3"/>
<path fill-rule="evenodd" clip-rule="evenodd" d="M115.702 30.0052L115.526 25.0219L115.351 22.4425C115.351 22.4425 114.998 19.864 117.109 19.864C119.219 19.864 118.867 22.2703 118.867 23.6461C118.867 25.0211 119.042 27.7702 119.042 27.7702L119.219 33.4431V37.7418L119.395 43.0703C119.395 43.0703 119.746 46.1646 117.636 46.1646C115.526 46.1646 115.877 43.9295 115.877 43.4138C115.877 42.8981 115.702 36.366 115.702 36.366V30.0052ZM103.921 42.5546L104.097 33.6152C104.097 33.6152 103.921 29.6617 103.921 29.319C103.921 28.9738 103.745 23.9897 103.745 23.3018C103.745 22.6139 103.393 20.0361 105.503 20.0361C107.613 20.0361 107.262 23.9897 107.262 25.5368C107.262 27.084 107.437 35.1624 107.437 35.1624V42.8989L110.252 42.7267C110.252 42.7267 113.431 42.5628 113.24 44.6174C113.065 46.5089 110.427 46.1646 109.9 46.1646C109.599 46.1646 107.28 46.3064 105.68 46.1646C103.745 45.9916 103.845 44.4042 103.921 42.5546ZM127.658 23.3018C128.714 23.3018 129.066 23.474 129.242 25.0211C129.417 26.5691 129.594 27.7702 131.176 27.5997C132.758 27.4275 132.935 25.0211 132.406 23.1304C131.879 21.2397 129.946 19.864 127.484 19.864C125.021 19.864 121.681 21.2397 121.681 30.8653C121.681 40.4917 121.856 46.6803 127.658 46.6803C133.462 46.6803 132.583 39.8038 132.583 39.6325C132.583 39.4603 132.231 38.4289 131.176 38.4289C130.121 38.4289 129.066 38.7732 129.066 41.3518C129.066 43.2425 128.011 43.2425 127.658 43.2425C126.077 43.2425 125.021 41.0074 125.021 32.756C125.021 25.7 126.077 23.3018 127.658 23.3018ZM96.3588 23.3018C97.4143 23.3018 97.7664 23.474 97.9429 25.0211C98.1186 26.5691 98.2942 27.7702 99.8767 27.5997C101.458 27.4275 101.635 25.0211 101.106 23.1304C100.579 21.2397 98.6463 19.864 96.1847 19.864C93.7223 19.864 90.3809 21.2397 90.3809 30.8653C90.3809 40.4917 90.5573 46.6803 96.3588 46.6803C102.163 46.6803 101.284 39.8038 101.284 39.6325C101.284 39.4603 100.931 38.4289 99.8767 38.4289C98.8212 38.4289 97.7664 38.7732 97.7664 41.3518C97.7664 43.2425 96.7117 43.2425 96.3588 43.2425C94.7771 43.2425 93.7223 41.0074 93.7223 32.756C93.7223 25.7 94.7771 23.3018 96.3588 23.3018ZM140.676 23.3018C141.555 23.3018 142.258 23.6461 142.434 25.0211C142.61 26.3969 142.962 27.7702 144.72 27.4275C146.479 27.0831 146.127 24.8497 145.423 22.9582C144.72 21.0676 142.786 19.864 140.323 19.864C137.863 19.864 135.225 21.9268 135.225 27.4275C135.225 32.9273 138.509 33.5226 140.5 34.8188C142.082 35.8503 142.786 36.7103 142.61 39.976C142.46 42.7702 141.028 42.8989 139.973 42.8989C138.917 42.8989 138.39 41.8675 138.39 41.1796C138.39 40.4917 138.566 38.4289 136.631 38.4289C134.698 38.4289 134.873 40.4917 134.873 41.1796C134.873 41.8675 135.577 46.1646 139.973 46.1646C144.368 46.1646 145.952 42.8989 145.952 40.3195C145.952 37.7418 145.952 35.5067 144.368 33.7874C142.786 32.0689 140.836 31.2392 140.148 30.8653C138.566 30.0052 138.624 28.636 138.742 26.9126C138.917 24.3332 138.917 23.3018 140.676 23.3018Z" fill="#5A35D3"/>
<path fill-rule="evenodd" clip-rule="evenodd" d="M23.2451 36.386C23.6708 36.386 24.0113 36.5383 24.0964 37.1476C24.1815 37.7577 24.3526 38.367 25.2031 38.2147C26.0552 38.0631 25.8849 37.0715 25.5444 36.2336C25.2031 35.3951 24.2667 34.8619 23.0749 34.8619C21.8815 34.8619 20.6037 35.7759 20.6037 38.2147C20.6037 40.6543 22.1952 40.9174 23.1592 41.4929C23.9254 41.9483 24.2667 42.3307 24.1815 43.7778C24.109 45.018 23.4154 45.0741 22.9038 45.0741C22.393 45.0741 22.1376 44.6164 22.1376 44.3117C22.1376 44.0071 22.2228 43.0923 21.2855 43.0923C20.3491 43.0923 20.4335 44.0071 20.4335 44.3117C20.4335 44.6164 20.774 46.5213 22.9038 46.5213C25.0328 46.5213 25.8006 45.0741 25.8006 43.9309C25.8006 42.7877 25.8006 41.796 25.0328 41.0351C24.2667 40.2727 23.3224 39.9042 22.9889 39.738C22.2228 39.3579 22.2504 38.7502 22.3071 37.9862C22.393 36.8437 22.393 36.386 23.2451 36.386ZM16.8722 34.7627H18.388C18.388 34.7627 19.3993 34.7627 19.3993 35.3666C19.3993 35.969 18.894 36.2706 18.2209 36.2706H17.2088C17.2088 36.2706 16.5348 36.1198 16.3669 36.2706C16.1982 36.4214 16.3669 37.4777 16.3669 37.4777V40.038L16.5348 40.1896H17.3775C17.3775 40.1896 18.388 40.1896 18.2201 40.9428C18.0514 41.6967 17.714 41.6967 17.3775 41.6967C17.0401 41.6967 16.5348 41.3959 16.3669 41.6967C16.1982 41.9983 16.3669 42.7515 16.3669 42.7515V43.2039L16.5348 43.807V45.0134H17.8827C17.8827 45.0134 19.2306 44.5618 19.2306 45.6165C19.2306 46.6713 18.2201 46.5213 17.3775 46.5213H15.693L15.019 46.2189L14.8504 45.9181L14.6817 45.0134V35.8182C14.6817 35.8182 15.0443 35.0558 15.5243 34.9127C16.0296 34.7619 16.8722 34.7619 16.8722 34.7619M9.6267 34.7627C10.1327 34.7627 10.6372 35.0643 10.6372 35.8182V45.0141H11.9851C11.9851 45.0141 13.5025 45.0141 13.5025 45.7681C13.5025 46.5228 12.9964 46.5228 12.3225 46.5228C11.6485 46.5228 10.4693 46.6728 10.4693 46.6728C10.4693 46.6728 8.95275 46.8236 8.95275 45.7681V35.969C8.95275 35.969 8.78407 34.7627 9.6267 34.7627Z" fill="#5A35D3"/>
</svg>
