<svg width="195" height="70" viewBox="0 0 195 70" fill="none" xmlns="http://www.w3.org/2000/svg">
<mask id="mask0" mask-type="alpha" maskUnits="userSpaceOnUse" x="0" y="0" width="195" height="70">
<path fill-rule="evenodd" clip-rule="evenodd" d="M0 0.000488281H194.774V69.7958H0V0.000488281Z" fill="white"/>
</mask>
<g mask="url(#mask0)">
<path fill-rule="evenodd" clip-rule="evenodd" d="M95.3 53.2501V36.4501C95.3 35.2092 95.76 30.7653 92.98 30.7653C90.21 30.7653 90.67 34.7214 90.67 34.7214V38.4239L90.9 47.0668L90.67 53.738L88.58 48.0638C88.58 48.0638 86.5 39.1653 86.04 37.6805C85.57 36.1956 84.88 31.2648 82.33 31.2648C79.78 31.2648 80.24 36.4501 80.24 36.4501V43.3653L80.48 48.3077V52.7517L80.24 56.7077V61.8941C80.24 63.8668 79.07 68.6608 81.87 69.0638C85.34 69.5517 84.65 62.3926 84.65 62.3926L84.88 58.4376L85.11 52.0092L87.19 57.938L89.97 65.1088C90.67 66.8376 91.13 69.0638 93.45 69.0638C96.46 69.0638 95.53 60.4092 95.53 60.1664C95.53 59.9214 95.3 53.738 95.3 53.2501ZM68.93 64.6092C64.76 64.6092 65.22 51.7664 65.22 46.8229C65.22 41.8804 65.69 35.7077 68.93 35.7077C71.94 35.7077 72.4 38.4239 72.4 48.5517C72.4 58.6805 72.17 64.6092 68.93 64.6092ZM68.7 30.7653C65.8 30.7653 62.54 33.2577 61.52 38.4239C60.59 43.1214 61.23 45.8047 61.05 51.7664C60.59 67.5789 65.46 69.7967 68.93 69.7967C77.73 69.7967 77.04 55.7214 77.04 50.2804C77.04 38.6668 76.81 30.7653 68.7 30.7653ZM170.94 35.7077C172.34 35.7077 172.8 35.9517 173.04 38.1789C173.27 40.3956 173.5 42.1361 175.6 41.8804C177.7 41.6365 177.94 38.1789 177.24 35.4638C176.54 32.738 173.97 30.7653 170.7 30.7653C167.43 30.7653 163 32.738 163 46.5789C163 60.4092 163.23 69.3088 170.94 69.3088C178.64 69.3088 177.47 59.4229 177.47 59.1789C177.47 58.935 177 57.4501 175.6 57.4501C174.2 57.4501 172.8 57.938 172.8 61.6501C172.8 64.3653 171.4 64.3653 170.94 64.3653C168.841 64.3653 167.43 61.1517 167.43 49.2951C167.43 39.1547 168.841 35.7077 170.94 35.7077ZM159.16 56.4638V50.2804L158.93 42.1361C158.93 42.1361 158.7 38.1789 158.7 36.1956C158.7 34.2239 159.16 30.7653 156.36 30.7653C153.56 30.7653 154.03 34.4668 154.03 34.4668L154.26 38.1789L154.5 45.338V47.5664V54.4804C154.5 54.4804 154.73 63.8668 154.73 64.6092C154.73 65.3517 154.26 68.5653 157.06 68.5653C159.86 68.5653 159.4 64.1214 159.4 64.1214L159.16 56.4638ZM52.96 44.3092C52.96 46.7804 51.34 47.2683 51.34 47.2683C51.34 47.2683 49.49 47.5239 48.56 47.5239C47.63 47.5239 47.86 46.5259 47.86 46.5259V43.0683L48.1 36.8956C47.86 35.6547 48.56 35.6547 48.56 35.6547C48.56 35.6547 51.34 35.6547 52.27 35.9092C53.19 36.1532 52.73 39.8547 52.73 39.8547C52.73 39.8547 52.96 41.838 52.96 44.3092ZM52.03 63.083C51.8 63.5804 48.33 63.5804 47.86 63.5804C47.4 63.5804 47.63 62.3395 47.63 61.5971V52.7092C47.63 52.7092 48.1 52.4547 50.18 52.7092C52.27 52.9532 52.5 54.1951 52.5 54.1951L52.73 55.9239V58.3951C52.96 63.3259 52.27 62.5951 52.03 63.083ZM55.74 50.483C55.51 50.238 55.51 50.238 55.97 49.7395C56.2 49.4956 57.36 48.2547 57.36 44.5532C57.36 40.8527 57.36 37.3941 57.13 35.9092C56.79 33.7244 55.79 32.0486 52.73 30.9668C52.03 30.7229 50.76 30.7653 49.34 30.7653C47.92 30.7653 46.36 30.7229 45.08 30.9668C43.47 31.2744 43.46 34.6683 43.46 34.9229V41.838L43.23 46.7804L43 51.9668V66.2956L43.23 67.038L43.69 67.7804L44.16 68.0244L44.62 68.2683L46.94 68.5229H50.18C50.18 68.5229 56.2 68.7668 57.13 62.838C58.06 56.9092 57.13 52.7092 56.67 52.2118C56.67 52.2118 56.44 51.2244 55.74 50.483ZM147.67 63.3789L143.93 63.6229V52.5077C143.93 52.5077 143.7 40.8951 143.7 38.6668C143.7 36.4501 144.16 30.7653 141.36 30.7653C138.56 30.7653 139.03 34.4668 139.03 35.4638C139.03 36.4501 139.26 43.6092 139.26 44.1077C139.26 44.5956 139.5 50.2804 139.5 50.2804L139.26 63.135C139.16 65.7865 139.03 68.0668 141.6 68.3214C143.72 68.5229 146.8 68.3214 147.2 68.3214C147.9 68.3214 151.4 68.8092 151.63 66.0941C151.89 63.1456 147.67 63.3789 147.67 63.3789ZM128.94 35.7077C130.34 35.7077 130.8 35.9517 131.04 38.1789C131.27 40.3956 131.5 42.1361 133.6 41.8804C135.7 41.6365 135.94 38.1789 135.24 35.4638C134.54 32.738 131.97 30.7653 128.7 30.7653C125.43 30.7653 121 32.738 121 46.5789C121 60.4092 121.23 69.3088 128.94 69.3088C136.64 69.3088 135.47 59.4229 135.47 59.1789C135.47 58.935 135 57.4501 133.6 57.4501C132.2 57.4501 130.8 57.938 130.8 61.6501C130.8 64.3653 129.4 64.3653 128.94 64.3653C126.841 64.3653 125.43 61.1517 125.43 49.2951C125.43 39.1547 126.841 35.7077 128.94 35.7077ZM105.65 35.7077C106.81 35.7077 107.74 36.1956 107.97 38.1789C108.2 40.1517 108.66 42.1361 110.98 41.6365C113.29 41.138 112.83 37.9361 111.9 35.2092C110.98 32.4951 108.43 30.7653 105.19 30.7653C101.94 30.7653 98.47 33.7361 98.47 41.6365C98.47 49.538 102.8 50.3982 105.42 52.2638C107.5 53.738 108.43 54.9789 108.2 59.6668C108 63.6865 106.11 63.8668 104.72 63.8668C103.33 63.8668 102.64 62.3926 102.64 61.3967C102.64 60.4092 102.87 57.4501 100.32 57.4501C97.77 57.4501 98.01 60.4092 98.01 61.3967C98.01 62.3926 98.93 68.5653 104.72 68.5653C110.51 68.5653 112.6 63.8668 112.6 60.1664C112.6 56.4638 112.6 53.2501 110.51 50.7789C108.43 48.3077 105.86 47.1092 104.96 46.5789C102.87 45.338 102.95 43.3759 103.1 40.8951C103.33 37.1926 103.33 35.7077 105.65 35.7077ZM15 40.1623C14.92 38.9967 13.96 38.1153 12.86 38.1895C11.759 38.2808 10.931 39.2915 11 40.4592C11.085 41.627 12.038 42.5051 13.14 42.432C14.24 42.3418 15.069 41.3311 15 40.1623ZM14.18 65.5967H12.33V50.5254C12.33 49.2951 11.64 48.7956 10.94 48.7956C9.79 48.7956 10.02 50.7683 10.02 50.7683V66.8259C10.02 68.5653 12.1 68.3108 12.1 68.3108C12.1 68.3108 13.72 68.0668 14.64 68.0668C15.57 68.0668 16.26 68.0668 16.26 66.8259C16.26 65.5967 14.18 65.5967 14.18 65.5967ZM187.01 46.5789C184.91 45.338 184.98 43.3759 185.14 40.8951C185.37 37.1926 185.37 35.7077 187.71 35.7077C188.881 35.7077 189.81 36.1956 190.04 38.1789C190.28 40.1517 190.74 42.1361 193.08 41.6365C195.41 41.138 194.94 37.9361 194.01 35.2092C193.08 32.4951 190.51 30.7653 187.24 30.7653C183.97 30.7653 180.47 33.7361 180.47 41.6365C180.47 49.538 184.83 50.3982 187.47 52.2638C189.58 53.738 190.51 54.9789 190.28 59.6668C190.08 63.6865 188.17 63.8668 186.77 63.8668C185.37 63.8668 184.67 62.3926 184.67 61.3967C184.67 60.4092 184.91 57.4501 182.34 57.4501C179.77 57.4501 180.01 60.4092 180.01 61.3967C180.01 62.3926 180.94 68.5653 186.77 68.5653C192.61 68.5653 194.71 63.8668 194.71 60.1664C194.71 56.4638 194.71 53.2501 192.61 50.7789C190.51 48.3077 187.92 47.1092 187.01 46.5789ZM21.47 51.2668H22.85C23.78 51.2668 24.47 50.7683 24.47 49.782C24.47 48.7956 23.09 48.7956 23.09 48.7956H21.01C21.01 48.7956 19.85 48.7956 19.16 49.0395C18.5 49.2729 18 50.5254 18 50.5254V65.5967L18.23 67.0805L18.46 67.5683L19.39 68.0668H21.7C22.85 68.0668 24.24 68.3108 24.24 66.582C24.24 64.8532 22.39 65.5967 22.39 65.5967H20.54V63.6229L20.31 62.6259V61.8941C20.31 61.8941 20.08 60.6532 20.31 60.1664C20.54 59.6668 21.24 60.1664 21.7 60.1664C22.16 60.1664 22.62 60.1664 22.85 58.9254C23.09 57.6941 21.7 57.6941 21.7 57.6941H20.54L20.31 57.4395V53.2395C20.31 53.2395 20.08 51.5108 20.31 51.2668C20.54 51.0229 21.47 51.2668 21.47 51.2668ZM29.86 51.2986C30.44 51.2986 30.91 51.5436 31.03 52.5395C31.14 53.5376 31.38 54.5441 32.55 54.2895C33.72 54.0456 33.48 52.4123 33.02 51.0441C32.55 49.6653 31.26 48.7956 29.63 48.7956C27.99 48.7956 26.24 50.2911 26.24 54.2895C26.24 58.288 28.42 58.7229 29.74 59.6668C30.79 60.4092 31.26 61.035 31.14 63.4108C31.05 65.4365 30.09 65.532 29.39 65.532C28.69 65.532 28.34 64.7789 28.34 64.2804C28.34 63.783 28.46 62.2876 27.17 62.2876C25.89 62.2876 26 63.783 26 64.2804C26 64.7789 26.47 67.9077 29.39 67.9077C32.31 67.9077 33.37 65.532 33.37 63.6558C33.37 61.788 33.37 60.1664 32.31 58.9138C31.26 57.6623 29.97 57.0577 29.51 56.7926C28.46 56.1668 28.5 55.1709 28.57 53.9183C28.69 52.0411 28.69 51.2986 29.86 51.2986ZM38.54 0.124387L3.59 13.3194C2.768 13.6535 2.214 14.4744 2.18 15.4077C2.156 16.3336 2.651 17.1864 3.44 17.582L13.87 22.3441L0 39.3138L0.214 39.5047C0.068 39.8377 -0.011 40.21 0.015 40.6024C0.098 41.8412 1.112 42.7745 2.28 42.6865C3.144 42.6208 3.847 42.013 4.125 41.2017L19.06 23.0451C19.508 22.4851 19.683 21.7342 19.53 21.0183C19.39 20.2971 18.93 19.788 18.31 19.4698L10.18 15.7259L36.43 5.71378L30.98 34.8486L26.35 26.9471C26.05 26.332 25.43 25.9289 24.74 25.8865L24.39 25.9077C23.79 25.9618 23.3 26.1729 22.9 26.6608L17.36 33.4911L17.537 33.6576C17.176 34.0935 16.973 34.6758 17.015 35.2994C17.098 36.5382 18.112 37.4715 19.28 37.3835C20.182 37.3145 20.907 36.6559 21.157 35.7883L24.28 31.9956L30.18 42.1562C30.662 42.9294 31.529 43.3292 32.39 43.1744C33.277 43.0291 33.964 42.2739 34.07 41.3289L41.37 2.63802C41.49 1.8956 41.17 1.0153 40.63 0.516811C40.043 0.0151446 39.254 -0.13334 38.54 0.124387Z" fill="white"/>
</g>
</svg>
