<svg xmlns="http://www.w3.org/2000/svg" xmlns:xlink="http://www.w3.org/1999/xlink" width="38" height="24" viewBox="0 0 38 24">
    <defs>
        <path id="rb8hc45v2a" d="M0 0L38 0 38 24 0 24z"/>
    </defs>
    <g fill="none" fill-rule="evenodd">
        <g>
            <g>
                <g>
                    <g transform="translate(-984 -618) translate(632 296) translate(0 304) translate(352 18)">
                        <mask id="z1p8ylpsgb" fill="#fff">
                            <use xlink:href="#rb8hc45v2a"/>
                        </mask>
                        <path fill="#BEBEBE" d="M16.233 15.585l.013.01.027.02c-.064-.057-.102-.089-.12-.102.028.023.053.05.08.072m-.782-6.372c-.003.004-.006.009-.01.012l-.02.029c.057-.066.089-.105.102-.122-.023.028-.049.053-.072.08m7.098 5.584l.01-.012.02-.029c-.057.066-.089.104-.102.122.023-.028.05-.053.072-.08m-.782-6.373l-.013-.01-.028-.02c.066.057.104.09.12.102-.026-.023-.052-.05-.079-.072m12.515 5.255c-.064.09-.128.175-.193.26-.052.068-.192.246.044-.061-.036.044-.072.093-.108.137-.144.186-.293.368-.44.547-.29.343-.586.68-.895 1.003-.613.647-1.271 1.254-1.96 1.816l-.17.137.005-.003-.006.004-.055.044c-.045.036-.138.105-.103.078-.176.134-.355.265-.534.392-.361.259-.734.502-1.11.737-.82.502-1.679.944-2.56 1.325-1.507.62-3.082 1.057-4.693 1.29-1.666.21-3.355.21-5.025 0-1.614-.237-3.192-.671-4.703-1.293-.783-.338-1.543-.724-2.275-1.157-.39-.23-.774-.478-1.148-.732-.176-.121-.348-.243-.52-.368-.076-.057-.157-.114-.233-.174l-.125-.094c-.698-.554-1.363-1.153-1.984-1.788-.313-.32-.614-.651-.907-.991-.14-.162-.276-.328-.413-.493-.06-.078-.124-.154-.184-.231l-.066-.084-.03-.042c-.47-.625-.895-1.283-1.294-1.957.337-.567.693-1.125 1.081-1.66.056-.08.116-.157.172-.238l.027-.036c-.103.14-.024.029.024-.032.018-.025.037-.049.054-.074l-.054.073.01-.012c.144-.186.292-.369.44-.55.286-.344.586-.68.891-1.008.614-.651 1.267-1.262 1.957-1.828.088-.074.18-.147.272-.22.069-.052.249-.19-.06.045.032-.024.06-.048.093-.072.192-.146.384-.292.585-.433.37-.263.75-.514 1.135-.753.821-.507 1.68-.948 2.565-1.332 1.507-.623 3.085-1.056 4.697-1.293 1.647-.208 3.312-.212 4.958-.003 1.607.237 3.176.673 4.678 1.294.782.34 1.547.726 2.281 1.16.385.23.766.47 1.135.724.177.122.353.247.525.373.097.068.189.137.281.21l.07.053.01.007c.706.559 1.38 1.158 2.013 1.801.317.32.626.652.922.991.14.162.281.328.418.494.075.093.148.182.22.275l.077.099c.468.627.901 1.28 1.31 1.948-.346.58-.707 1.15-1.102 1.695m3.083-3.115c-.384-.619-.802-1.222-1.243-1.8-.922-1.21-1.937-2.335-3.08-3.338-2.297-2.02-4.968-3.569-7.875-4.49-3-.952-6.159-1.154-9.262-.713-2.916.413-5.755 1.497-8.237 3.095C5.118 4.96 2.94 7.117 1.228 9.63c-.385.566-.746 1.149-1.075 1.747-.051.095-.086.197-.11.303-.006.018-.009.037-.013.056-.008.041-.017.082-.02.124-.027.21.003.427.092.634l.02.048c.012.023.019.047.031.07 1.428 2.58 3.36 4.911 5.675 6.732 2.382 1.877 5.1 3.285 8.043 4.026 3.036.764 6.216.829 9.283.218 2.875-.57 5.65-1.784 8.036-3.5 2.466-1.768 4.56-4.014 6.151-6.61.24-.398.59-.863.65-1.324.076-.574-.333-1.12-.626-1.59m-13.902 2.013c-.067.415-.177.817-.328 1.207-.125.273-.264.537-.43.79-.04.06-.083.121-.127.181l.035-.04-.055.069-.005.008c-.038.053-.11.129-.076.085-.096.112-.194.224-.297.332-.124.125-.253.243-.389.356-.005.003-.018.016-.028.025-.063.047-.124.093-.189.137-.256.173-.527.32-.807.451-.37.146-.752.252-1.144.32-.412.043-.826.043-1.238 0-.394-.069-.778-.175-1.15-.322-.27-.126-.53-.266-.781-.433-.06-.04-.12-.084-.18-.128l.04.035-.068-.055-.009-.006c-.052-.038-.127-.111-.084-.076-.111-.097-.222-.196-.329-.3-.124-.126-.24-.255-.353-.392l-.024-.028c-.047-.064-.094-.126-.136-.191-.171-.259-.318-.532-.447-.815-.145-.373-.25-.758-.317-1.154-.043-.416-.043-.833 0-1.25.067-.397.173-.784.319-1.159.124-.272.263-.536.429-.789.04-.06.084-.121.126-.181l-.034.04c.02-.024.037-.047.054-.07l.007-.007c.037-.052.11-.129.075-.085.096-.113.194-.225.297-.332.125-.125.252-.243.39-.356l.027-.025c.063-.047.125-.093.189-.137.256-.173.527-.32.807-.451.37-.146.752-.252 1.144-.32.412-.043.826-.043 1.238 0 .394.068.778.174 1.15.322.27.125.531.266.781.433.06.04.12.084.18.128l-.04-.035.068.055.009.006c.051.038.127.11.084.076.112.097.223.196.329.3.124.126.24.255.353.392.003.005.015.018.025.028.046.064.092.126.135.191.171.26.317.532.448.815.151.39.261.794.328 1.21.018.188.03.378.03.568 0 .193-.013.386-.032.577m1.2-4.55c-.855-1.197-1.99-2.075-3.361-2.589-2.615-.98-5.783-.122-7.555 2.052-.959 1.173-1.515 2.544-1.636 4.061-.108 1.388.248 2.837.962 4.03.698 1.165 1.752 2.165 2.988 2.723 1.383.627 2.863.81 4.359.514 2.682-.53 4.948-2.86 5.369-5.596.064-.405.108-.809.112-1.218v-.001V12c-.008-1.4-.42-2.832-1.239-3.972m5.767 9.592c.042-.03.084-.066.13-.1l.001-.002-.16.123.029-.02" mask="url(#z1p8ylpsgb)"/>
                    </g>
                </g>
            </g>
        </g>
    </g>
</svg>
