<svg xmlns="http://www.w3.org/2000/svg" viewBox="0 0 924.1 1280"><defs><style>.cls-1{fill:#fff;}</style></defs><title>Fichier 2</title><g id="Calque_2" data-name="Calque 2"><g id="Calque_1-2" data-name="Calque 1"><path class="cls-1" d="M608.1,1000v240q0,16-12,28t-28,12h-240q-16,0-28-12t-12-28V1000q0-16,12-28t28-12h240q16,0,28,12T608.1,1000Zm316-600q0,54-15.5,101t-35,76.5q-19.5,29.5-55,59.5t-57.5,43.5q-22,13.5-61,35.5-41,23-68.5,65t-27.5,67q0,17-12,32.5t-28,15.5h-240q-15,0-25.5-18.5T288.1,840V795q0-83,65-156.5T496.1,530q59-27,84-56t25-76q0-42-46.5-74T451.1,292q-65,0-108,29-35,25-107,115-13,16-31,16-12,0-25-8L16.1,319Q3.1,309,.6,294a39.43,39.43,0,0,1,5.5-28Q166.1,0,470.1,0q80,0,161,31t146,83q65,52,106,127.5T924.1,400Z"/></g></g></svg>