<?xml version="1.0" encoding="UTF-8"?>
<svg width="42px" height="40px" viewBox="0 0 42 40" version="1.1" xmlns="http://www.w3.org/2000/svg" xmlns:xlink="http://www.w3.org/1999/xlink">
    <title>60E5E396-F39A-4C64-AC5E-A7586FD3DD00</title>
    <defs>
        <polygon id="path-1" points="0 0 42 0 42 40 0 40"></polygon>
    </defs>
    <g id="Page-1" stroke="none" stroke-width="1" fill="none" fill-rule="evenodd">
        <g id="RESSOURCES_survol_Carte" transform="translate(-853.000000, -863.000000)">
            <g id="Group-3" transform="translate(853.000000, 863.000000)">
                <mask id="mask-2" fill="white">
                    <use xlink:href="#path-1"></use>
                </mask>
                <g id="Clip-2"></g>
                <path d="M41.9415003,15.1870944 C41.8042762,14.7649259 41.4405386,14.4554609 41.0016096,14.388778 L27.918332,12.4817409 L22.0675129,0.653039438 C21.7794364,0.0716772391 21.0745184,-0.1654697 20.4931961,0.122393812 C20.2629228,0.236506102 20.0763546,0.422936467 19.9621578,0.653039438 L14.1113387,12.4817409 L1.03276051,14.3601325 C0.388465481,14.439025 -0.0697312021,15.0246135 0.00874966568,15.6679627 C0.0430556738,15.9469038 0.176050198,16.204713 0.384235973,16.3934914 L9.84893464,25.6304821 L7.61669439,38.6242559 C7.50531735,39.2633787 7.93296759,39.8710384 8.57256316,39.9828027 C8.82868336,40.0269449 9.09232268,39.9856202 9.32259589,39.864464 L21.0148354,33.7174275 L32.7117743,39.859768 C33.2855775,40.1626586 33.9961348,39.9428868 34.2992495,39.3695078 C34.4204954,39.1398744 34.4623206,38.8759604 34.4176758,38.61956 L32.1807361,25.6304821 L41.6454347,16.3934914 C41.9664074,16.0807392 42.081074,15.6125501 41.9415003,15.1870944" id="Fill-1" fill="#BEC3C7" mask="url(#mask-2)"></path>
            </g>
        </g>
    </g>
</svg>