<svg xmlns="http://www.w3.org/2000/svg" xmlns:xlink="http://www.w3.org/1999/xlink" width="664" height="486" viewBox="0 0 664 486"><defs><path id="a" d="M1216.5 445c200.76 0 363.5 162.18 363.5 362.24 0 32.43-4.3 63.85-12.32 93.76H865.32A361.52 361.52 0 0 1 853 807.24C853 607.18 1015.74 445 1216.5 445"/><path id="b" d="M1217.83 414c6.43 0 12.82.16 19.17.47-205.29 9.97-368.66 179.15-368.66 386.4A386.3 386.3 0 0 0 881.48 901h-38.33A386.3 386.3 0 0 1 830 800.87C830 587.21 1003.64 414 1217.83 414"/><path id="c" d="M1195.41 871h6.18a6.46 6.46 0 0 1 6.41 6.48v5.04a6.46 6.46 0 0 1-6.41 6.48h-6.18a6.46 6.46 0 0 1-6.41-6.48v-5.04a6.46 6.46 0 0 1 6.41-6.48"/><path id="d" d="M976.41 871h6.18a6.46 6.46 0 0 1 6.41 6.48v5.04a6.46 6.46 0 0 1-6.41 6.48h-6.18a6.46 6.46 0 0 1-6.41-6.48v-5.04a6.46 6.46 0 0 1 6.41-6.48"/><path id="e" d="M949.94 876h292.89c6.1 0 11.65-4.99 12.32-11.09l22.76-206.11c.9-8.14-5.03-14.8-13.17-14.8H979.26c-8.14 0-15.54 6.66-16.44 14.8l-22.75 206.11a9.77 9.77 0 0 0 9.87 11.09"/><path id="f" d="M941.94 876h292.89c6.1 0 11.65-4.99 12.32-11.09l22.76-206.11c.9-8.14-5.03-14.8-13.17-14.8H971.26c-8.14 0-15.54 6.66-16.44 14.8l-22.75 206.11a9.77 9.77 0 0 0 9.87 11.09"/><path id="g" d="M941.65 867h293.43c1.4 0 2.94-1.46 3.09-2.83l22.8-206.68c.28-2.59-1.3-4.49-3.93-4.49H971.02c-3.45 0-6.83 3.14-7.21 6.54l-22.8 206.68c-.06.57.06.78.64.78"/><path id="h" d="M964.72 796.6h80.5c1.34 0 2.21 1.08 1.96 2.4a3.1 3.1 0 0 1-2.9 2.4h-80.51c-1.33 0-2.21-1.08-1.95-2.4a3.1 3.1 0 0 1 2.9-2.4zm-1.78 10.6h80.51c1.33 0 2.21 1.08 1.95 2.4a3.1 3.1 0 0 1-2.9 2.4H962c-1.34 0-2.21-1.08-1.95-2.4a3.08 3.08 0 0 1 2.89-2.4zM1047 786c1.34 0 2.21 1.08 1.95 2.4a3.09 3.09 0 0 1-2.89 2.4h-80.51c-1.33 0-2.21-1.08-1.95-2.4a3.09 3.09 0 0 1 2.9-2.4z"/><path id="i" d="M1254.87 711l5.13-46H963.13L958 711h296.87"/><path id="j" d="M971.41 871h6.18a6.46 6.46 0 0 1 6.41 6.48v5.04a6.46 6.46 0 0 1-6.41 6.48h-6.18a6.46 6.46 0 0 1-6.41-6.48v-5.04a6.46 6.46 0 0 1 6.41-6.48"/><path id="k" d="M1190.41 871h6.18a6.46 6.46 0 0 1 6.41 6.48v5.04a6.46 6.46 0 0 1-6.41 6.48h-6.18a6.46 6.46 0 0 1-6.41-6.48v-5.04a6.46 6.46 0 0 1 6.41-6.48"/><path id="l" d="M806.74 880h413.52c2.06 0 3.74 1.57 3.74 3.5s-1.68 3.5-3.74 3.5H806.74c-2.06 0-3.74-1.57-3.74-3.5s1.68-3.5 3.74-3.5"/><path id="m" d="M785.05 883h318.9a9.05 9.05 0 0 1 9.05 9c0 4.95-4.07 9-9.05 9h-318.9a9.05 9.05 0 0 1-9.05-9c0-4.95 4.07-9 9.05-9"/><path id="n" d="M849 883h96c0 4.95-4.08 9-9.06 9h-77.88a9.06 9.06 0 0 1-9.06-9"/><path id="o" d="M1037.05 883h206.9a9.05 9.05 0 0 1 9.05 9c0 4.95-4.07 9-9.05 9h-206.9a9.05 9.05 0 0 1-9.05-9c0-4.95 4.07-9 9.05-9"/><path id="p" d="M1167.87 888h16.26c2.13 0 3.87 1.8 3.87 4s-1.74 4-3.87 4h-16.26a3.95 3.95 0 0 1-3.87-4c0-2.2 1.74-4 3.87-4"/><path id="q" d="M1171.58 890h10.84a2.54 2.54 0 0 1 2.58 2.5c0 1.38-1.16 2.5-2.58 2.5h-10.84a2.54 2.54 0 0 1-2.58-2.5c0-1.38 1.16-2.5 2.58-2.5"/><path id="r" d="M1174.58 890h10.84a2.54 2.54 0 0 1 2.58 2.5c0 1.38-1.16 2.5-2.58 2.5h-10.84a2.54 2.54 0 0 1-2.58-2.5c0-1.38 1.16-2.5 2.58-2.5"/><path id="s" d="M1044.83 888h99.33c2.11 0 3.84 1.8 3.84 4s-1.73 4-3.84 4h-99.33c-2.1 0-3.83-1.8-3.83-4s1.73-4 3.83-4"/><path id="t" d="M1047.83 888h99.33c2.11 0 3.84 1.8 3.84 4s-1.73 4-3.84 4h-99.33c-2.1 0-3.83-1.8-3.83-4s1.73-4 3.83-4"/><path id="u" d="M1206.96 888h1.09c2.17 0 3.95 1.8 3.95 4s-1.78 4-3.95 4h-1.09a4 4 0 0 1-3.96-4 4 4 0 0 1 3.96-4"/><path id="v" d="M1208.95 888h1.1c2.17 0 3.95 1.8 3.95 4s-1.78 4-3.95 4h-1.1a3.99 3.99 0 0 1-3.95-4c0-2.2 1.78-4 3.95-4"/><path id="w" d="M1208.76 890h.48c.97 0 1.76.9 1.76 2s-.79 2-1.76 2h-.48c-.97 0-1.76-.9-1.76-2s.79-2 1.76-2"/><path id="x" d="M1221.95 888h1.1c2.17 0 3.95 1.8 3.95 4s-1.78 4-3.95 4h-1.1a3.99 3.99 0 0 1-3.95-4c0-2.2 1.78-4 3.95-4"/><path id="y" d="M1223.95 888h1.09a4 4 0 0 1 3.96 4 4 4 0 0 1-3.96 4h-1.09a3.99 3.99 0 0 1-3.95-4c0-2.2 1.78-4 3.95-4"/><path id="z" d="M937.5 824c-22.92 0-41.5 18.44-41.5 41.19 0 4.85.84 9.49 2.39 13.81h78.22a40.77 40.77 0 0 0 2.39-13.81c0-22.75-18.58-41.19-41.5-41.19"/><path id="A" d="M967.48 837.72a41.14 41.14 0 0 0-17.29-11.21 46.36 46.36 0 0 0-8.19-1.37c-14.91-1.15-27 5.01-27 13.77s12.09 16.8 27 17.95c14.91 1.15 27-5.01 27-13.77 0-1.84-.54-3.65-1.52-5.37"/><path id="B" d="M967.5 838a31.47 31.47 0 0 0-29.69 42h59.38a31.5 31.5 0 0 0-29.69-42"/><path id="C" d="M990.85 847.54a31.32 31.32 0 0 0-13.13-8.4 34.96 34.96 0 0 0-6.22-1.04c-11.32-.86-20.5 3.77-20.5 10.34s9.18 12.59 20.5 13.46c11.32.86 20.5-3.76 20.5-10.33 0-1.38-.41-2.74-1.15-4.03"/><path id="D" d="M991.5 847c-13.53 0-24.5 10.73-24.5 23.97 0 2.81.5 5.52 1.41 8.03h46.18a23.54 23.54 0 0 0 1.41-8.03c0-13.24-10.97-23.97-24.5-23.97"/><path id="E" d="M1009.1 855.55a24.35 24.35 0 0 0-10.25-6.65 26.69 26.69 0 0 0-4.85-.82c-8.84-.68-16 2.98-16 8.18 0 5.2 7.16 9.97 16 10.66 8.84.68 16-2.98 16-8.18 0-1.09-.32-2.17-.9-3.19"/><path id="F" d="M1009.75 880a97.93 97.93 0 0 1-6.75-35.61c0-34.21 17.99-65.14 47-87.39-15.77 19.11-24.92 41.83-24.92 66.23 0 20.48 6.46 39.79 17.87 56.77h-33.2"/><path id="G" d="M1033 862c7.18 0 13 5.7 13 12.73 0 1.5-.26 2.94-.75 4.27h-24.5a12.33 12.33 0 0 1-.75-4.27c0-7.03 5.82-12.73 13-12.73"/><path id="H" d="M1050 757c-15.68 19.12-24.78 41.84-24.78 66.23 0 15.8 3.82 30.9 10.78 44.77h-12.25a98.35 98.35 0 0 1-6.75-35.69c0-28.38 12.32-54.5 33-75.31"/><path id="I" d="M1234.99 729.4c.09-.81-.4-1.4-1.22-1.4h-89.09c-1.07 0-2.12.98-2.24 2.04l-8.43 76.56c-.09.81.4 1.4 1.22 1.4h89.09c1.07 0 2.12-.98 2.24-2.04l8.43-76.56"/><path id="J" d="M1240.99 781.4c.09-.81-.4-1.4-1.22-1.4h-89.09c-1.07 0-2.12.98-2.24 2.04l-8.43 76.56c-.09.81.4 1.4 1.22 1.4h89.09c1.07 0 2.12-.98 2.24-2.04l8.43-76.56"/><path id="K" d="M1234.99 786.12c.07-.65-.32-1.12-.98-1.12h-79.41c-.86 0-1.71.78-1.81 1.63l-6.78 61.25c-.07.65.32 1.12.98 1.12h79.41c.87 0 1.72-.78 1.81-1.63l6.78-61.25"/><path id="L" d="M983.89 683h28.15c1.31 0 2.17 1.13 1.92 2.5-.26 1.38-1.54 2.5-2.85 2.5h-28.15c-1.31 0-2.17-1.12-1.92-2.5.26-1.37 1.54-2.5 2.85-2.5"/><path id="M" d="M981.93 693h46.09c1.32 0 2.19 1.13 1.93 2.5a3.1 3.1 0 0 1-2.87 2.5h-46.09c-1.33 0-2.2-1.12-1.94-2.5a3.1 3.1 0 0 1 2.88-2.5"/><path id="N" d="M1035.94 693h5.06c1.34 0 2.21 1.13 1.95 2.5a3.12 3.12 0 0 1-2.89 2.5H1035c-1.34 0-2.21-1.12-1.95-2.5.26-1.37 1.56-2.5 2.89-2.5"/><path id="O" d="M1223.76 890h.48c.97 0 1.76.9 1.76 2s-.79 2-1.76 2h-.48c-.97 0-1.76-.9-1.76-2s.79-2 1.76-2"/><path id="P" d="M997.02 721c14.82 0 25.48 11.86 23.81 26.5-1.67 14.63-15.04 26.5-29.85 26.5-14.82 0-25.48-11.87-23.81-26.5 1.67-14.64 15.04-26.5 29.85-26.5"/><path id="Q" d="M1004.4 765.86a22.28 22.28 0 0 1-12.66 4.14c-4.53 0-8.56-1.53-11.74-4.14l.5-4.45c.83-7.38 7-13.41 13.71-13.41 6.72 0 11.53 6.03 10.7 13.41l-.51 4.45"/><path id="R" d="M995.19 732h1.62a5.15 5.15 0 0 1 5.15 5.89l-.69 6.22a6.73 6.73 0 0 1-6.46 5.89h-1.62a5.15 5.15 0 0 1-5.15-5.89l.69-6.22a6.73 6.73 0 0 1 6.46-5.89"/><path id="S" d="M1033.82 725h28.16c1.31 0 2.21 1.13 1.99 2.5-.22 1.38-1.47 2.5-2.79 2.5h-28.16c-1.31 0-2.21-1.12-1.99-2.5.22-1.37 1.48-2.5 2.79-2.5"/><path id="T" d="M1032.82 734h28.16c1.31 0 2.21 1.13 1.99 2.5-.22 1.38-1.48 2.5-2.79 2.5h-28.16c-1.31 0-2.21-1.12-1.99-2.5.22-1.37 1.47-2.5 2.79-2.5"/><path id="U" d="M1097.58 736.83c.8-3.32 1.88-6.55 3.21-9.65l-.52-.53a2.51 2.51 0 0 1-.31-.35 2.3 2.3 0 0 1-1.29.38h-16.1c-.64 0-1.19-.23-1.64-.68l-8.05-8.04c-.19-.2-.34-.41-.45-.64-2.32 1.72-3.91 2.55-4.32 2.13-.97-.96 4.78-8.26 12.83-16.31 8.05-8.05 15.36-13.79 16.32-12.83.49.49-.74 2.59-3.11 5.59h14.59c.63 0 1.18.23 1.63.67l.21.21a93.24 93.24 0 0 1 54.36-40.99l.48-.13c.61-.17 1.24-.33 1.86-.48l.11-.03.9-.22.48-.11.9-.21.06-.01.48-.11.49-.1.48-.1 1.94-.38.49-.09h.02l.47-.08.49-.08.49-.09.49-.07.49-.08.46-.07h.03l.49-.07.49-.07.47-.06h.02l.5-.06.46-.06h.03l.17-.02.08-.01H1205l-3.03 3.53-.01.01.02.02v.01l.01.03.01.02v.01l.01.02.01.03.01.02v.01l.02.03v.02l.01.01.01.03.01.03.01.03.01.03v.01l.01.02.01.03v.01l.01.02.01.03.01.02v.01l.01.03.01.03.01.03.01.03v.01l.01.02v.03l.01.02v.02l.01.03.01.02v.01l.01.03.01.03.01.03v.04l.01.02.01.03v.04l.01.03.01.02v.01l.01.03v.03l.01.03.01.03v.04l.01.03v.03l.01.03v.03l.01.04.01.03v.03l.01.03v.03l.01.04v.03l.01.03v.07l.01.03V658.31l.01.03V658.4l.01.04v.09l.15 2.53c.04.84.06 1.68.08 2.51v.01l.01 1.19v.31l-.01.99v.06c0 .79-.02 1.58-.05 2.36v.11l-.01.1-.04.89-.01.26-.01.23-.06 1v.07l-.07.93-.02.27-.02.22-.04.5-.04.5v.02l-.05.47-.04.5-.01.07-.06.53-.08.71-.02.17v.03l-.06.46-.06.52-.06.47-.07.49-.07.49v.03l-.07.46-.08.49-.07.49-.08.49-.09.49-.08.47v.02l-.09.48a111 111 0 0 1-.38 1.94l-.1.49-.1.48-.12.55-.2.9-.12.48-.22.89-.02.12-.49 1.86-.13.47a93.3 93.3 0 0 1-41.01 54.34l.2.21.03.02.02.02.02.02.02.02.02.02.02.03.02.02.01.02.02.02.02.02.02.03.01.02.02.02.02.03.02.02.01.02.02.03.01.02.02.02.01.03.02.02.01.02.01.03.02.02.01.03.01.02.02.03.01.02.01.03.01.02.02.05.01.03.01.03.01.02.01.03.01.02.01.03.01.03.01.02v.03l.01.03.01.02.01.03v.03l.01.03v.02l.01.03v.03l.01.03v.02h.01v.06l.01.03v.09l.01.03v14.75c3-2.37 5.11-3.6 5.59-3.11.97.96-4.78 8.27-12.83 16.31-8.05 8.05-15.36 13.8-16.32 12.83-.42-.41.41-2 2.13-4.32a2.28 2.28 0 0 1-.63-.45l-8.06-8.04c-.45-.46-.67-1-.67-1.64v-16.1c0-.48.12-.91.38-1.28l-.36-.31-.52-.53a59.8 59.8 0 0 1-9.66 3.21 2.03 2.03 0 0 1-1.93-.54l-1.92-1.92a56.9 56.9 0 0 1-9.21 12.04 56.86 56.86 0 0 1-33.42 16.28 56.76 56.76 0 0 1 16.29-33.4 56.9 56.9 0 0 1 12.04-9.21l-1.91-1.92a2 2 0 0 1-.55-1.93"/><path id="V" d="M1285.73 747.07l-7.39 1.97c-.64.17-1.1.64-1.28 1.28-.17.64 0 1.27.47 1.74l5.41 5.41c.47.47 1.1.64 1.74.46.64-.17 1.1-.63 1.28-1.27l1.98-7.39c.17-.64 0-1.27-.47-1.74a1.73 1.73 0 0 0-1.74-.46"/><path id="W" d="M1140 717l-54 40s29.01-15.49 54-40"/><path id="X" d="M1091 717a49.1 49.1 0 0 1 14.09-28.91A49.1 49.1 0 0 1 1134 674a49.17 49.17 0 0 1-14.09 28.91A49.1 49.1 0 0 1 1091 717"/><path id="Y" d="M1105 702a26.27 26.27 0 0 1 7.54-15.46A26.27 26.27 0 0 1 1128 679a26.27 26.27 0 0 1-7.54 15.46A26.27 26.27 0 0 1 1105 702"/><path id="Z" d="M1123.56 641.57l6.86 6.8c.77.76.77 2 0 2.76l-15.45 15.3a1.9 1.9 0 0 1-1.39.57h-13.74a1.9 1.9 0 0 1-1.39-.57l-6.87-6.8c-.77-.76-.77-2 0-2.76l15.45-15.3a1.9 1.9 0 0 1 1.39-.57h13.74c.54 0 1.01.19 1.4.57"/><path id="aa" d="M1164.43 683.44l-6.8-6.86c-.76-.77-2-.77-2.76 0l-15.3 15.45a1.9 1.9 0 0 0-.57 1.39v13.74c0 .54.19 1.01.57 1.39l6.8 6.87c.76.77 2 .77 2.76 0l15.3-15.45c.38-.38.57-.85.57-1.39v-13.74c0-.54-.19-1.01-.57-1.4"/><path id="ab" d="M1164.43 683.58l-6.8-6.99a1.9 1.9 0 0 0-2.76 0l-15.3 15.72c-.38.39-.57.87-.57 1.42v4.01c1.17.33 2.42.35 3.65.05a81.74 81.74 0 0 0 22.35-9.21v-3.59c0-.55-.19-1.02-.57-1.41"/><path id="ac" d="M1113.05 676.33a51.25 51.25 0 0 1 13.62-24.3 51.26 51.26 0 0 1 39.94-14.9 3.5 3.5 0 0 1 3.26 3.26 51.22 51.22 0 0 1-14.91 39.94 51.17 51.17 0 0 1-24.29 13.62 1.71 1.71 0 0 1-1.65-.47l-15.5-15.5a1.69 1.69 0 0 1-.47-1.65"/><path id="ad" d="M1114.08 664.96a79.39 79.39 0 0 1 21.11-37.65 79.4 79.4 0 0 1 61.9-23.11c1.59.11 2.99.9 3.91 2.07L1127.28 680l-12.48-12.48a2.65 2.65 0 0 1-.72-2.56"/><path id="ae" d="M1201.21 606a5.5 5.5 0 0 1 1.59 3.49 79.72 79.72 0 0 1-23.25 62.21 79.88 79.88 0 0 1-37.88 21.22 2.66 2.66 0 0 1-2.58-.73L1127 680.12l74.21-74.12"/><path id="af" d="M1133 673.95l68-67.95a79.7 79.7 0 0 1-23.3 51.69 79.85 79.85 0 0 1-37.88 21.23 2.69 2.69 0 0 1-2.58-.73l-4.24-4.24"/><path id="ag" d="M1136.05 689l-9.05-9.19 16.56-16.81.87.88c.38.39.57.86.57 1.41v13.8c0 .54-.19 1.01-.57 1.4l-8.38 8.51"/><path id="ah" d="M1171 606.88a79.06 79.06 0 0 1 26.79-2.68 5.4 5.4 0 0 1 5.01 5.01 79.06 79.06 0 0 1-2.68 26.79L1171 606.88"/><path id="ai" d="M1201.18 606a5.52 5.52 0 0 1 1.62 3.53 80.77 80.77 0 0 1-2.78 27.47L1185 622.07l16.18-16.07"/><path id="aj" d="M1174.61 632.39a15.02 15.02 0 0 1 0 21.22 15.02 15.02 0 0 1-21.22 0 15.02 15.02 0 0 1 0-21.22 15.02 15.02 0 0 1 21.22 0"/><path id="ak" d="M1118.57 686.64l1.79 1.79c.75.76 1.99.76 2.75 0l22.32-22.32c.76-.76.76-2 0-2.75l-1.79-1.79a1.94 1.94 0 0 0-2.75 0l-22.32 22.32c-.76.76-.76 2 0 2.75"/><path id="al" d="M1172.63 637.37a11.5 11.5 0 1 1-16.26 16.26 11.5 11.5 0 0 1 16.26-16.26"/><path id="am" d="M1172.63 634.37a11.5 11.5 0 1 1-16.26 16.26 11.5 11.5 0 0 1 16.26-16.26"/><path id="an" d="M1160.25 635.14a8.5 8.5 0 1 1 8.5 14.72 8.5 8.5 0 0 1-8.5-14.72"/><path id="ao" d="M1161.38 636.9a6.78 6.78 0 0 1 9.23 2.46c1.87 3.22-3.46.06-6.69 1.92-3.23 1.85-3.15 8.02-5.01 4.81a6.7 6.7 0 0 1 2.47-9.19"/><path id="ap" d="M1119 658a80.27 80.27 0 0 1 18.41-28.95A79.3 79.3 0 0 1 1174 608a119.58 119.58 0 0 0-35.87 25.02c-7.5 7.56-13.95 16-19.13 24.98"/><path id="aq" d="M1077 730a48.6 48.6 0 0 1 7.73-21 47.2 47.2 0 0 0-2.41 15.68 47.2 47.2 0 0 0 15.68-2.41 48.6 48.6 0 0 1-21 7.73"/><path id="ar" d="M1111.91 636.09c.82.82-4.07 7.04-10.93 13.89-6.85 6.86-13.07 11.75-13.89 10.93-.82-.82 4.07-7.04 10.93-13.89 6.85-6.86 13.07-11.75 13.89-10.93"/><path id="as" d="M1169.91 694.09c.82.82-4.07 7.04-10.93 13.89-6.85 6.86-13.07 11.75-13.89 10.93-.82-.82 4.07-7.04 10.93-13.89 6.85-6.86 13.07-11.75 13.89-10.93"/><path id="at" d="M1140.91 665.09c.82.82-4.07 7.04-10.93 13.89-6.85 6.86-13.07 11.75-13.89 10.93-.82-.82 4.07-7.04 10.93-13.89 6.85-6.86 13.07-11.75 13.89-10.93"/><path id="au" d="M1121.73 612.07l-7.39 1.97a1.8 1.8 0 0 0-.81 3.02l5.41 5.41a1.8 1.8 0 0 0 3.02-.81l1.97-7.39c.18-.64.01-1.27-.46-1.74a1.73 1.73 0 0 0-1.74-.46"/><path id="av" d="M1130.14 604.05l-6.04 1.62c-.53.14-.91.52-1.05 1.05-.14.52 0 1.04.39 1.42l4.42 4.43c.38.38.9.52 1.42.38.53-.14.91-.52 1.05-1.05l1.62-6.04c.14-.52 0-1.04-.38-1.43-.39-.38-.91-.52-1.43-.38"/><path id="aw" d="M1070 737a27.77 27.77 0 0 1 4.41-12c-.94 2.8-1.4 5.83-1.37 8.96 3.13.03 6.16-.42 8.96-1.37a27.77 27.77 0 0 1-12 4.41"/><path id="ax" d="M1088 668l-39 55s14.97-29.45 39-55"/><path id="ay" d="M1178 728h-33.54a2.4 2.4 0 0 0-2.22 2.03l-5.64 51.52.58.59c.19.19.4.34.63.45-.68.91-1.21 1.72-1.59 2.38L1136 787c1.69.02 8.45-5.45 15.84-12.9 7.97-8.03 13.65-15.31 12.7-16.27-.48-.49-2.56.73-5.53 3.1V746.24l-.01-.03v-.09l-.01-.02v-.06l-.01-.03v-.03l-.01-.02v-.03l-.01-.03v-.03l-.01-.03-.01-.02v-.03l-.01-.03-.01-.02v-.03l-.01-.03-.01-.02-.01-.03-.01-.02-.01-.03-.01-.03-.01-.02-.01-.03-.02-.05-.01-.02-.01-.03-.01-.02-.02-.03-.01-.02-.01-.03-.02-.02-.01-.03-.01-.02-.02-.03-.01-.02-.02-.02-.01-.03-.02-.02-.01-.02-.02-.02v-.01l-.02-.02-.01-.02-.02-.02-.02-.03-.02-.02-.01-.02-.02-.02-.02-.02-.02-.03-.02-.02-.02-.02-.02-.02-.02-.02-.02-.02-.2-.21A92.18 92.18 0 0 0 1178 728"/><path id="az" d="M1160.85 751h46.11c1.32 0 2.23 1.13 2.01 2.5a3 3 0 0 1-2.82 2.5h-46.11c-1.32 0-2.23-1.12-2.01-2.5.23-1.37 1.49-2.5 2.82-2.5"/><path id="aA" d="M1214.87 751h5.07c1.34 0 2.25 1.13 2.03 2.5a3.03 3.03 0 0 1-2.84 2.5h-5.07c-1.34 0-2.25-1.12-2.03-2.5a3.04 3.04 0 0 1 2.84-2.5"/><path id="aB" d="M1161.82 742h28.16c1.31 0 2.21 1.12 1.99 2.5-.22 1.38-1.47 2.5-2.79 2.5h-28.16c-1.31 0-2.21-1.12-1.99-2.5.22-1.38 1.47-2.5 2.79-2.5"/><path id="aC" d="M1158.82 803h28.16c1.31 0 2.21 1.13 1.99 2.5-.22 1.38-1.47 2.5-2.79 2.5h-28.16c-1.31 0-2.21-1.12-1.99-2.5.22-1.37 1.48-2.5 2.79-2.5"/><path id="aD" d="M1157.63 813h16.25c1.3 0 2.25 1.12 2.11 2.5-.14 1.38-1.32 2.5-2.62 2.5h-16.25c-1.3 0-2.25-1.12-2.11-2.5.14-1.38 1.32-2.5 2.62-2.5"/><path id="aE" d="M1219.82 690h28.16c1.31 0 2.21 1.13 1.99 2.5-.22 1.38-1.48 2.5-2.79 2.5h-28.16c-1.31 0-2.21-1.12-1.99-2.5.22-1.37 1.47-2.5 2.79-2.5"/><path id="aF" d="M1218.67 699h15.14c1.33 0 2.31 1.13 2.18 2.5a2.78 2.78 0 0 1-2.66 2.5h-15.14c-1.33 0-2.31-1.12-2.18-2.5a2.78 2.78 0 0 1 2.66-2.5"/><path id="aG" d="M1294.73 738.07l-7.39 1.97c-.64.18-1.1.64-1.27 1.28-.18.64-.01 1.27.46 1.74l5.41 5.41c.47.47 1.1.64 1.74.46.64-.17 1.1-.63 1.28-1.27l1.98-7.39c.17-.64 0-1.27-.47-1.74a1.73 1.73 0 0 0-1.74-.46"/><path id="aH" d="M860.73 693.07l-7.39 1.97c-.64.18-1.1.64-1.27 1.28-.18.64-.01 1.27.46 1.74l5.41 5.41c.47.47 1.1.64 1.74.46.64-.17 1.1-.63 1.28-1.27l1.97-7.39c.18-.64.01-1.27-.46-1.74a1.73 1.73 0 0 0-1.74-.46"/><path id="aI" d="M869.73 684.07l-7.39 1.97c-.64.18-1.1.64-1.27 1.28-.18.64-.01 1.27.46 1.74l5.41 5.41c.47.47 1.1.64 1.74.46.64-.17 1.1-.63 1.28-1.27l1.97-7.39c.18-.64.01-1.27-.46-1.74a1.73 1.73 0 0 0-1.74-.46"/><path id="aJ" d="M1043.77 788c-10.43 14.99-15.17 32.8-12.44 51.91 1.78 12.38 6.54 24.21 13.67 35.09h-9.82a83.99 83.99 0 0 1-9.42-27.97c-3.18-22.24 3.76-42.72 18.01-59.03"/><path id="aK" d="M1058.5 849c12.98 0 23.5 10.39 23.5 23.22 0 2.73-.48 5.35-1.35 7.78h-44.3a23.04 23.04 0 0 1-1.35-7.78c0-12.83 10.52-23.22 23.5-23.22"/><path id="aL" d="M1041.87 856.15a23.84 23.84 0 0 1 9.93-6.3c1.48-.38 3.06-.65 4.7-.77 8.56-.65 15.5 2.82 15.5 7.75 0 4.92-6.94 9.44-15.5 10.09-8.56.65-15.5-2.82-15.5-7.75 0-1.03.31-2.05.87-3.02"/><path id="aM" d="M1089.5 837a31.47 31.47 0 0 1 29.69 42h-59.38a31.5 31.5 0 0 1 29.69-42"/><path id="aN" d="M1066.18 847.94a31.96 31.96 0 0 1 13.45-8.76c2.01-.53 4.15-.9 6.37-1.07 11.6-.9 21 3.92 21 10.76s-9.4 13.12-21 14.02c-11.6.9-21-3.92-21-10.76 0-1.44.42-2.85 1.18-4.19"/><path id="aO" d="M1130 824a41.97 41.97 0 0 1 39.58 56h-79.16a41.97 41.97 0 0 1 39.58-56"/><path id="aP" d="M1099.55 837.11a41.9 41.9 0 0 1 17.61-11.55c2.63-.7 5.43-1.19 8.34-1.42 15.19-1.19 27.5 5.17 27.5 14.21 0 9.03-12.31 17.32-27.5 18.51-15.19 1.19-27.5-5.17-27.5-14.21 0-1.9.54-3.76 1.55-5.54"/><path id="aQ" d="M962 869.54c-5.62-1.66-59.98-18.22-59.98-18.22s23.89 17.23 20.15 16.23C918.42 866.56 835 850 835 850l101.93 26-7.74-12.25 32.81 5.79"/><path id="aR" d="M1047 871.54c6.82-1.65 72.74-18.21 72.74-18.21s-28.98 17.22-24.44 16.22c4.55-.99 105.7-17.55 105.7-17.55l-123.6 26 9.38-12.25-39.78 5.79"/></defs><desc>Generated with Avocode.</desc><g transform="translate(-776 -414)"><use fill="#f8f9fc" xlink:href="#a"/></g><g transform="translate(-776 -414)"><use fill="#f8f9fc" xlink:href="#b"/></g><g transform="translate(-776 -414)"><use fill="#36353f" xlink:href="#c"/></g><g transform="translate(-776 -414)"><use fill="#36353f" xlink:href="#d"/></g><g transform="translate(-776 -414)"><use fill="#36353f" xlink:href="#e"/></g><g transform="translate(-776 -414)"><use fill="#565663" xlink:href="#f"/></g><g transform="translate(-776 -414)"><use fill="#9697c3" xlink:href="#g"/></g><g transform="translate(-776 -414)"><use fill="#7a7ba4" xlink:href="#h"/></g><g transform="translate(-776 -414)"><use fill="#22008f" xlink:href="#i"/></g><g transform="translate(-776 -414)"><use fill="#444551" xlink:href="#j"/></g><g transform="translate(-776 -414)"><use fill="#444551" xlink:href="#k"/></g><g transform="translate(-776 -414)"><use fill="#626269" xlink:href="#l"/></g><g transform="translate(-776 -414)"><use fill="#444551" xlink:href="#m"/></g><g transform="translate(-776 -414)"><use fill="#36353f" xlink:href="#n"/></g><g transform="translate(-776 -414)"><use fill="#36353f" xlink:href="#o"/></g><g transform="translate(-776 -414)"><use fill="#282930" xlink:href="#p"/></g><g transform="translate(-776 -414)"><use fill="#444551" xlink:href="#q"/></g><g transform="translate(-776 -414)"><use fill="#abadad" xlink:href="#r"/></g><g transform="translate(-776 -414)"><use fill="#282930" xlink:href="#s"/></g><g transform="translate(-776 -414)"><use fill="#444551" xlink:href="#t"/></g><g transform="translate(-776 -414)"><use fill="#282930" xlink:href="#u"/></g><g transform="translate(-776 -414)"><use fill="#444551" xlink:href="#v"/></g><g transform="translate(-776 -414)"><use fill="#282930" xlink:href="#w"/></g><g transform="translate(-776 -414)"><use fill="#282930" xlink:href="#x"/></g><g transform="translate(-776 -414)"><use fill="#444551" xlink:href="#y"/></g><g transform="translate(-776 -414)"><use fill="#ececec" xlink:href="#z"/></g><g transform="translate(-776 -414)"><use fill="#fffffe" xlink:href="#A"/></g><g transform="translate(-776 -414)"><use fill="#ececec" xlink:href="#B"/></g><g transform="translate(-776 -414)"><use fill="#fffffe" xlink:href="#C"/></g><g transform="translate(-776 -414)"><use fill="#f8f9fc" xlink:href="#D"/></g><g transform="translate(-776 -414)"><use fill="#fffffe" xlink:href="#E"/></g><g transform="translate(-776 -414)"><use fill="#f8f9fc" xlink:href="#F"/></g><g transform="translate(-776 -414)"><use fill="#fffffe" xlink:href="#G"/></g><g transform="translate(-776 -414)"><use fill="#fffffe" xlink:href="#H"/></g><g transform="translate(-776 -414)"><use fill="#7a7ba2" xlink:href="#I"/></g><g transform="translate(-776 -414)"><use fill="#7a7ba2" xlink:href="#J"/></g><g transform="translate(-776 -414)"><use fill="#22008f" xlink:href="#K"/></g><g transform="translate(-776 -414)"><use fill="#fefbfb" xlink:href="#L"/></g><g transform="translate(-776 -414)"><use fill="#fefbfb" xlink:href="#M"/></g><g transform="translate(-776 -414)"><use fill="#fefbfb" xlink:href="#N"/></g><g transform="translate(-776 -414)"><use fill="#282930" xlink:href="#O"/></g><g transform="translate(-776 -414)"><use fill="#fffffe" xlink:href="#P"/></g><g transform="translate(-776 -414)"><use fill="#22008f" xlink:href="#Q"/></g><g transform="translate(-776 -414)"><use fill="#22008f" xlink:href="#R"/></g><g transform="translate(-776 -414)"><use fill="#7a7ba4" xlink:href="#S"/></g><g transform="translate(-776 -414)"><use fill="#7a7ba4" xlink:href="#T"/></g><g transform="translate(-776 -414)"><use fill="#75769b" fill-opacity=".51" xlink:href="#U"/></g><g transform="translate(-776 -414)"><use fill="#f8f9fc" xlink:href="#V"/></g><g transform="translate(-776 -414)"><use fill="#fffffe" xlink:href="#W"/></g><g transform="translate(-776 -414)"><use fill="#fdc62c" xlink:href="#X"/></g><g transform="translate(-776 -414)"><use fill="#fffffe" xlink:href="#Y"/></g><g transform="translate(-776 -414)"><use fill="#e26a6e" xlink:href="#Z"/></g><g transform="translate(-776 -414)"><use fill="#b75255" xlink:href="#aa"/></g><g transform="translate(-776 -414)"><use fill="#8d4244" xlink:href="#ab"/></g><g transform="translate(-776 -414)"><use fill="#535365" xlink:href="#ac"/></g><g transform="translate(-776 -414)"><use fill="#edf0ee" xlink:href="#ad"/></g><g transform="translate(-776 -414)"><use fill="#9e9b90" xlink:href="#ae"/></g><g transform="translate(-776 -414)"><use fill="#b0afa7" xlink:href="#af"/></g><g transform="translate(-776 -414)"><use fill="#9e9b90" xlink:href="#ag"/></g><g transform="translate(-776 -414)"><use fill="#e26a6e" xlink:href="#ah"/></g><g transform="translate(-776 -414)"><use fill="#b75255" xlink:href="#ai"/></g><g transform="translate(-776 -414)"><use fill="#b0afa7" xlink:href="#aj"/></g><g transform="translate(-776 -414)"><use fill="#b94f53" xlink:href="#ak"/></g><g transform="translate(-776 -414)"><use fill="#9e9b90" xlink:href="#al"/></g><g transform="translate(-776 -414)"><use fill="#e26a6e" xlink:href="#am"/></g><g transform="translate(-776 -414)"><use fill="#9697c3" xlink:href="#an"/></g><g transform="translate(-776 -414)"><use fill="#fffffe" xlink:href="#ao"/></g><g transform="translate(-776 -414)"><use fill="#fffffe" xlink:href="#ap"/></g><g transform="translate(-776 -414)"><use fill="#fdc62c" xlink:href="#aq"/></g><g transform="translate(-776 -414)"><use fill="#b75255" xlink:href="#ar"/></g><g transform="translate(-776 -414)"><use fill="#b75255" xlink:href="#as"/></g><g transform="translate(-776 -414)"><use fill="#e26a6e" xlink:href="#at"/></g><g transform="translate(-776 -414)"><use fill="#fffffe" xlink:href="#au"/></g><g transform="translate(-776 -414)"><use fill="#fffffe" xlink:href="#av"/></g><g transform="translate(-776 -414)"><use fill="#fdc62c" xlink:href="#aw"/></g><g transform="translate(-776 -414)"><use fill="#fffffe" xlink:href="#ax"/></g><g transform="translate(-776 -414)"><use fill="#75769b" fill-opacity=".51" xlink:href="#ay"/></g><g transform="translate(-776 -414)"><use fill="#fffffe" xlink:href="#az"/></g><g transform="translate(-776 -414)"><use fill="#fffffe" xlink:href="#aA"/></g><g transform="translate(-776 -414)"><use fill="#fffffe" xlink:href="#aB"/></g><g transform="translate(-776 -414)"><use fill="#fefbfb" xlink:href="#aC"/></g><g transform="translate(-776 -414)"><use fill="#fefbfb" xlink:href="#aD"/></g><g transform="translate(-776 -414)"><use fill="#fff" xlink:href="#aE"/></g><g transform="translate(-776 -414)"><use fill="#fff" xlink:href="#aF"/></g><g transform="translate(-776 -414)"><use fill="#f8f9fc" xlink:href="#aG"/></g><g transform="translate(-776 -414)"><use fill="#f8f9fc" xlink:href="#aH"/></g><g transform="translate(-776 -414)"><use fill="#f8f9fc" xlink:href="#aI"/></g><g transform="translate(-776 -414)"><use fill="#fffffe" xlink:href="#aJ"/></g><g transform="translate(-776 -414)"><use fill="#f8f9fc" xlink:href="#aK"/></g><g transform="translate(-776 -414)"><use fill="#fffffe" xlink:href="#aL"/></g><g transform="translate(-776 -414)"><use fill="#ececec" xlink:href="#aM"/></g><g transform="translate(-776 -414)"><use fill="#fffffe" xlink:href="#aN"/></g><g transform="translate(-776 -414)"><use fill="#ececec" xlink:href="#aO"/></g><g transform="translate(-776 -414)"><use fill="#fffffe" xlink:href="#aP"/></g><g transform="translate(-776 -414)"><use fill="#fffffe" xlink:href="#aQ"/></g><g transform="translate(-776 -414)"><use fill="#fffffe" xlink:href="#aR"/></g></svg>