<svg width="450" height="334" viewBox="0 0 450 334" fill="none" xmlns="http://www.w3.org/2000/svg">
<path fill-rule="evenodd" clip-rule="evenodd" d="M378.562 165.522C378.562 165.522 427.639 144.624 411.865 128.546C411.865 128.546 412.351 124.841 415.75 123.285C419.149 121.728 428.696 107.653 421.966 103.19C415.232 98.7262 415.379 98.9077 420.697 91.5805C426.011 84.2532 436.355 61.1077 425.365 56.188C414.378 51.2688 402.777 75.7367 400.316 76.5322C399.207 76.8908 398.68 75.5863 398.022 74.2818C397.224 72.6904 396.23 71.0995 393.761 72.5269C391.75 73.6886 383.875 91.6902 385.822 95.5243C386.712 97.2729 385.467 96.497 383.52 95.721C381.195 94.7951 377.863 93.8696 375.941 97.2302C375.366 98.2347 370.359 113.8 373.112 121.496C375.865 129.191 366.143 144.009 367.882 147.11L378.562 165.522Z" fill="#5A35DA"/>
<path fill-rule="evenodd" clip-rule="evenodd" d="M382.603 140.906C382.742 140.924 382.882 140.858 382.954 140.729L431.181 54.4252C431.277 54.256 431.217 54.0426 431.046 53.9484C430.878 53.8539 430.663 53.9145 430.571 54.0833L382.344 140.387C382.248 140.556 382.312 140.769 382.479 140.864C382.519 140.886 382.563 140.9 382.603 140.906Z" fill="white"/>
<path fill-rule="evenodd" clip-rule="evenodd" d="M411.626 88.9698C411.673 88.9758 411.721 88.973 411.765 88.9594C411.953 88.9067 412.06 88.7129 412.008 88.5266L406.419 68.8347C406.368 68.6484 406.172 68.5403 405.989 68.5929C405.801 68.6456 405.693 68.8395 405.745 69.0258L411.334 88.718C411.374 88.8569 411.49 88.9522 411.626 88.9698Z" fill="white"/>
<path fill-rule="evenodd" clip-rule="evenodd" d="M417.753 78.0053C417.801 78.0117 417.853 78.0081 417.901 77.9929L430.559 74.0882C430.746 74.0311 430.85 73.8348 430.79 73.6497C430.735 73.465 430.539 73.3617 430.352 73.4183L417.693 77.3231C417.51 77.3802 417.406 77.5761 417.462 77.7612C417.506 77.8964 417.621 77.9882 417.753 78.0053Z" fill="white"/>
<path fill-rule="evenodd" clip-rule="evenodd" d="M392.7 122.84C392.756 122.846 392.812 122.841 392.867 122.82L429.035 109.454C429.214 109.387 429.31 109.185 429.242 109.004C429.175 108.822 428.971 108.729 428.792 108.796L392.624 122.163C392.441 122.23 392.349 122.432 392.417 122.613C392.464 122.74 392.576 122.823 392.7 122.84Z" fill="white"/>
<path fill-rule="evenodd" clip-rule="evenodd" d="M352.021 61.0112C352.021 61.0112 356.798 41.9353 340.107 47.064C323.415 52.1927 339.789 23.1222 333.624 18.8173C325.866 13.4009 319.525 20.822 318.137 24.3625C315.073 32.1785 307.964 9.9314 307.964 9.9314C307.964 9.9314 304.953 -3.82193 292.477 2.05161C284.393 5.85786 280.77 15.5313 288.221 19.4165C295.671 23.3017 297.234 31.5932 293.339 32.8307C289.443 34.0686 281.082 37.2458 282.388 42.5273C283.693 47.8088 287.913 52.825 301.032 53.7633C314.151 54.702 307.574 66.1347 300.606 68.0704C293.638 70.0064 300.047 77.3137 306.153 82.7376C312.259 88.162 339.806 92.9037 345.267 82.6427C350.383 73.0299 352.021 61.0112 352.021 61.0112Z" fill="#FC9D33"/>
<path fill-rule="evenodd" clip-rule="evenodd" d="M331.732 66.1586C331.794 66.1586 331.858 66.141 331.915 66.1035C332.072 66.0014 332.116 65.7904 332.014 65.6328L296.246 10.0135C296.145 9.85593 295.936 9.81085 295.779 9.91338C295.623 10.0155 295.578 10.2265 295.68 10.3841L331.448 66.0034C331.513 66.1039 331.621 66.1586 331.732 66.1586Z" fill="white"/>
<path fill-rule="evenodd" clip-rule="evenodd" d="M321.657 50.8028C313.315 48.2954 291.508 41.7712 290.581 41.6288C290.397 41.6172 290.253 41.4653 290.253 41.2789C290.253 41.0855 290.409 40.9287 290.603 40.9287C291.181 40.9287 313.756 47.697 321.414 49.9981L321.44 48.0493L321.44 48.0274L322.842 29.4553C322.857 29.2622 323.025 29.1194 323.218 29.1321C323.411 29.1469 323.555 29.3153 323.541 29.5079L322.14 48.0692L322.108 50.472C322.107 50.5821 322.053 50.6847 321.965 50.7501C321.904 50.7944 321.832 50.8175 321.758 50.8175L321.657 50.8028Z" fill="white"/>
<path fill-rule="evenodd" clip-rule="evenodd" d="M350.777 92.6282C350.832 92.4475 356.443 74.3829 369.665 58.366C387.314 36.9814 409.419 29.201 435.358 35.2409L435.733 33.6419C421.1 30.2354 407.433 31.2024 395.113 36.5167C385.268 40.7629 376.268 47.7754 368.365 57.3591C354.952 73.6285 349.262 91.966 349.206 92.1495L350.777 92.6282Z" fill="#FFDA97"/>
<path fill-rule="evenodd" clip-rule="evenodd" d="M360.251 64.0025C360.251 64.0025 354.057 50.1889 360.82 45.3578C364.9 42.4436 369.342 48.5333 366.841 52.6539C364.336 56.7741 361.146 65.9995 361.146 65.9995L360.251 64.0025Z" fill="#FFDA97"/>
<path fill-rule="evenodd" clip-rule="evenodd" d="M376.671 45.5324C376.671 45.5324 372.215 32.3803 378.813 28.5577C382.79 26.2515 386.317 32.1992 383.672 35.7434C381.027 39.2879 377.313 47.4342 377.313 47.4342L376.671 45.5324Z" fill="#FFDA97"/>
<path fill-rule="evenodd" clip-rule="evenodd" d="M373.391 55.4151C373.391 55.4151 384.55 63.679 390.207 58.5695C393.622 55.4869 388.005 49.6042 383.82 51.0363C379.639 52.4689 371.78 54.2203 371.78 54.2203L373.391 55.4151Z" fill="#FFDA97"/>
<path fill-rule="evenodd" clip-rule="evenodd" d="M425.317 33.0305C425.002 33.2104 432.669 44.5254 438.239 42.2291C443.804 39.9333 441.203 31.9043 434.201 31.4459C434.201 31.4459 428.664 31.1303 425.317 33.0305Z" fill="#FFDA97"/>
<path fill-rule="evenodd" clip-rule="evenodd" d="M404.903 34.1137C404.903 34.1137 408.797 43.4365 417.019 43.9463C425.245 44.4565 421.527 32.0189 406.758 33.6992L404.903 34.1137Z" fill="#FFDA97"/>
<path fill-rule="evenodd" clip-rule="evenodd" d="M387.095 42.0981C387.095 42.0981 390.989 51.4204 399.211 51.9307C407.437 52.4409 403.723 40.0033 388.954 41.6836L387.095 42.0981Z" fill="#FFDA97"/>
<path fill-rule="evenodd" clip-rule="evenodd" d="M396.645 36.295C396.645 36.295 394.455 26.4329 400.878 21.2738C407.305 16.1152 411.438 28.4192 398.405 35.5621L396.645 36.295Z" fill="#FFDA97"/>
<path fill-rule="evenodd" clip-rule="evenodd" d="M418.986 31.6225C418.986 31.6225 420.063 21.5769 427.798 18.7449C435.538 15.9132 435.518 28.8938 420.885 31.4901L418.986 31.6225Z" fill="#FFDA97"/>
<path fill-rule="evenodd" clip-rule="evenodd" d="M361.616 72.289C361.616 72.289 374.772 76.7332 378.59 70.1348C380.891 66.1542 374.943 62.6332 371.401 65.2793C367.858 67.9255 359.714 71.6467 359.714 71.6467L361.616 72.289Z" fill="#FFDA97"/>
<path fill-rule="evenodd" clip-rule="evenodd" d="M169.13 106.03C169.13 106.03 156.119 4.26074 73.4034 4.26074C73.4034 4.26074 56.9844 65.5014 127.927 112.423L169.13 106.03Z" fill="#0CA891"/>
<path fill-rule="evenodd" clip-rule="evenodd" d="M116.179 58.5634L116.722 58.1201L70.2335 1.23584L69.6909 1.67946L116.179 58.5634Z" fill="white"/>
<path fill-rule="evenodd" clip-rule="evenodd" d="M101.766 40.1421L116.765 9.55447L116.136 9.24609L101.136 39.8333L101.766 40.1421Z" fill="white"/>
<path fill-rule="evenodd" clip-rule="evenodd" d="M107.121 47.9491L107.227 47.1397L74.7286 42.9058L74.6233 43.7152L107.121 47.9491Z" fill="white"/>
<path fill-rule="evenodd" clip-rule="evenodd" d="M123.931 52.0979L135.421 30.1193L134.698 29.7407L123.208 51.7197L123.931 52.0979Z" fill="white"/>
<path fill-rule="evenodd" clip-rule="evenodd" d="M114.804 239.283C109.901 219.354 89.7018 154.267 36.5288 162.395C33.3369 162.883 31.0254 165.709 31.1671 168.935C31.8189 183.788 37.8768 225.518 83.5697 253.685C85.1902 254.683 87.1733 254.906 88.9737 254.287L110.707 246.809C113.815 245.74 115.59 242.475 114.804 239.283Z" fill="#5A35DA"/>
<path fill-rule="evenodd" clip-rule="evenodd" d="M55.9657 189.157C56.0367 189.147 56.1041 189.117 56.1584 189.07C56.2481 188.993 56.2876 188.88 56.2625 188.774L49.8664 161.407L49.1818 161.555L55.4602 188.418L32.9172 183.334L32.7261 183.943L55.8249 189.152C55.8712 189.162 55.9194 189.164 55.9657 189.157Z" fill="white"/>
<path fill-rule="evenodd" clip-rule="evenodd" d="M89.4019 224.79L90.0063 224.216L29.8599 160.713L29.2551 161.288L89.4019 224.79Z" fill="white"/>
<path fill-rule="evenodd" clip-rule="evenodd" d="M45.3885 215.798L76.7827 211.274L76.6826 210.581L45.2883 215.105L45.3885 215.798Z" fill="white"/>
<path fill-rule="evenodd" clip-rule="evenodd" d="M372.358 151.632C369.649 161.228 371.448 170.098 376.515 171.654C381.725 173.254 385.096 166.793 388.136 156.896C388.635 155.278 388.822 153.546 389.069 151.99C391.112 150.788 397.395 149.244 401.919 148.019C417.055 143.917 433.691 145.682 439.762 155.261C439.762 155.261 449.812 165.773 438.246 185.28C436.75 187.798 434.464 189.428 432.111 191.521C429.047 189.709 423.988 188.525 418.272 188.525C408.917 188.525 401.333 191.69 401.333 195.596C401.333 199.5 408.917 202.666 418.272 202.666C420.685 202.666 422.979 202.455 425.058 202.075C424.04 205.152 423.338 209.039 423.139 214.094C422.389 233.147 401.237 259.736 365.008 269.38L346.576 164.005C346.576 164.005 357.44 151.283 372.358 151.632Z" fill="#2DD3BB"/>
<path fill-rule="evenodd" clip-rule="evenodd" d="M105.43 60.3233C101.946 58.8304 98.0581 61.4981 97.8853 65.5525C97.5702 72.9452 94.9467 78.6248 90.9195 79.4798C85.5031 80.6299 83.3868 74.1376 81.5214 63.101C81.3785 62.2557 81.0187 60.7601 80.8659 59.2306C80.587 56.4432 79.695 53.44 77.0162 52.6764C74.8077 52.0473 72.3163 51.0663 69.7479 50.5154C56.6373 47.7037 47.1087 49.9625 38.6074 56.9598C38.6074 56.9598 27.9426 64.9206 30.2856 85.3768C30.4695 86.983 31.0639 89.1843 31.8817 91.2915C33.0211 94.2272 36.1599 95.5733 38.9281 94.3505C41.1039 93.3895 43.6264 92.6993 47.0014 93.0731C56.3876 94.1135 63.6171 98.3782 63.1491 102.599C62.6816 106.82 54.6933 109.398 45.3075 108.358L45.2349 108.35C41.972 107.982 39.0901 110.759 39.1128 114.293C39.124 116.082 39.0909 118.033 39.0542 120.169C38.5164 151.453 65.3987 171.449 97.8271 185.738C101.064 187.165 104.74 184.926 105.321 181.184L121.491 77.0371C121.75 75.3699 121.332 73.6741 120.337 72.3875C117.908 69.2459 112.707 63.4417 105.43 60.3233Z" fill="#2DD3BB"/>
<path fill-rule="evenodd" clip-rule="evenodd" d="M88.0554 155.757L89.1022 155.117C89.0124 154.97 79.9697 140.343 65.0336 129.249C56.2366 122.715 47.1429 118.659 38.0052 117.194C26.5665 115.361 15.0464 117.605 3.76294 123.863L4.35815 124.936C24.4199 113.809 44.5877 115.591 64.3019 130.234C79.0494 141.188 87.9668 155.613 88.0554 155.757Z" fill="#FFBE9B"/>
<path fill-rule="evenodd" clip-rule="evenodd" d="M74.7428 140.445C74.7428 140.445 64.9155 147.278 60.1917 142.406C57.342 139.466 61.428 135.063 64.9861 136.562C68.5446 138.062 76.1639 139.456 76.1639 139.456L74.7428 140.445Z" fill="#FFBE9B"/>
<path fill-rule="evenodd" clip-rule="evenodd" d="M60.9988 128.44C60.9988 128.44 53.729 138.142 47.8367 134.979C44.2826 133.071 47.5328 126.69 51.3334 126.99C55.1333 127.29 62.0496 127.037 62.0496 127.037L60.9988 128.44Z" fill="#FFBE9B"/>
<path fill-rule="evenodd" clip-rule="evenodd" d="M62.413 126.079C62.413 126.079 67.1452 114.917 61.4488 111.414C58.0127 109.3 54.1307 115.318 56.3005 118.452C58.4707 121.587 61.7292 127.692 61.7292 127.692L62.413 126.079Z" fill="#FFBE9B"/>
<path fill-rule="evenodd" clip-rule="evenodd" d="M76.3432 137.772C76.3432 137.772 81.0754 126.61 75.379 123.107C71.9429 120.993 68.0609 127.011 70.2307 130.145C72.4005 133.28 75.659 139.385 75.659 139.385L76.3432 137.772Z" fill="#FFBE9B"/>
<path fill-rule="evenodd" clip-rule="evenodd" d="M12.1854 120.864C12.4906 120.949 8.83112 132.514 3.68165 131.776C-1.46782 131.038 -1.22208 123.473 4.46077 121.493C4.46077 121.493 8.96715 119.968 12.1854 120.864Z" fill="#FFBE9B"/>
<path fill-rule="evenodd" clip-rule="evenodd" d="M29.3308 117.194C29.3308 117.194 28.3211 126.176 21.6393 128.476C14.9576 130.777 15.08 119.129 27.6952 117.254L29.3308 117.194Z" fill="#FFBE9B"/>
<path fill-rule="evenodd" clip-rule="evenodd" d="M46.5047 119.961C46.5047 119.961 45.495 128.943 38.8132 131.243C32.1314 133.544 32.2539 121.896 44.8686 120.021L46.5047 119.961Z" fill="#FFBE9B"/>
<path fill-rule="evenodd" clip-rule="evenodd" d="M47.8551 119.534C47.8551 119.534 49.3807 110.627 43.6013 106.56C37.8219 102.493 34.703 113.717 46.3005 119.023L47.8551 119.534Z" fill="#FFBE9B"/>
<path fill-rule="evenodd" clip-rule="evenodd" d="M36.6764 117.226C36.6764 117.226 36.1506 108.159 29.6117 105.127C23.0731 102.095 22.5713 113.722 35.0488 116.985L36.6764 117.226Z" fill="#FFBE9B"/>
<path fill-rule="evenodd" clip-rule="evenodd" d="M17.0911 118.209C17.0911 118.209 13.8162 109.723 6.7435 109.01C-0.32924 108.296 2.7665 119.573 15.4886 118.524L17.0911 118.209Z" fill="#FFBE9B"/>
<path fill-rule="evenodd" clip-rule="evenodd" d="M333.968 306.425C333.968 306.425 448.782 310.383 446.899 223.544C446.899 223.544 355.241 183.336 333.887 296.509L333.968 306.425Z" fill="#FC9D33"/>
<path fill-rule="evenodd" clip-rule="evenodd" d="M414.071 245.682C414.067 245.774 414.087 245.867 414.131 245.947C414.202 246.079 414.33 246.158 414.47 246.154L449.815 245.132L449.812 244.235L415.112 245.237L427.168 218.225L426.466 217.829L414.115 245.506C414.091 245.562 414.075 245.622 414.071 245.682Z" fill="white"/>
<path fill-rule="evenodd" clip-rule="evenodd" d="M334.462 298.724L335.142 299.912L446.843 224.671L446.576 223.466L334.462 298.724Z" fill="white"/>
<path fill-rule="evenodd" clip-rule="evenodd" d="M383.652 221.41L381.039 268.486L382.072 268.551L384.777 221.034L383.652 221.41Z" fill="white"/>
<path fill-rule="evenodd" clip-rule="evenodd" d="M431.157 273.762L431.656 272.69L398.165 257.093L397.667 258.164L431.157 273.762Z" fill="white"/>
<path fill-rule="evenodd" clip-rule="evenodd" d="M389.76 297.32L390.031 296.442L352.662 284.898L348.677 246.602L347.763 246.697L351.811 285.597L352.101 285.687L389.76 297.32Z" fill="white"/>
<path fill-rule="evenodd" clip-rule="evenodd" d="M404.68 252.28L407.066 216.77L405.785 216.684L403.399 252.194L404.68 252.28Z" fill="white"/>
<path fill-rule="evenodd" clip-rule="evenodd" d="M111.675 270.706C111.675 270.706 36.5748 296.795 20.4526 237.865C20.4526 237.865 72.9965 192.06 109.745 264.003L111.675 270.706Z" fill="#FC9D33"/>
<path fill-rule="evenodd" clip-rule="evenodd" d="M46.5784 246.094C46.6004 246.155 46.606 246.221 46.5932 246.284C46.5716 246.388 46.503 246.467 46.4109 246.492L22.8425 253.014L22.667 252.408L45.8017 246.005L32.4326 230.254L32.8163 229.844L46.515 245.984C46.5425 246.016 46.5637 246.054 46.5784 246.094Z" fill="white"/>
<path fill-rule="evenodd" clip-rule="evenodd" d="M109.808 265.614L109.596 266.554L20.7158 238.613L20.6511 237.746L109.808 265.614Z" fill="white"/>
<path fill-rule="evenodd" clip-rule="evenodd" d="M61.8306 223.524L72.9741 254.729L72.3046 254.984L61.012 223.501L61.8306 223.524Z" fill="white"/>
<path fill-rule="evenodd" clip-rule="evenodd" d="M40.9008 268.51L40.3567 267.889L59.376 250.542L59.9201 251.162L40.9008 268.51Z" fill="white"/>
<path fill-rule="evenodd" clip-rule="evenodd" d="M72.9752 275.948L72.6201 275.411L95.0128 260.005L89.9878 233.374L90.6113 233.251L95.7153 260.303L95.5414 260.422L72.9752 275.948Z" fill="white"/>
<path fill-rule="evenodd" clip-rule="evenodd" d="M54.1059 248.626L45.4275 225.172L46.2561 224.853L54.9345 248.307L54.1059 248.626Z" fill="white"/>
<path fill-rule="evenodd" clip-rule="evenodd" d="M370.371 264.208H95.5151C88.0499 264.208 81.9421 258.1 81.9421 250.635V67.1224C81.9421 59.6575 88.0499 53.5498 95.5151 53.5498H370.371C377.835 53.5498 383.943 59.6575 383.943 67.1224V250.635C383.943 258.1 377.835 264.208 370.371 264.208Z" fill="#00C1E6"/>
<path fill-rule="evenodd" clip-rule="evenodd" d="M374.764 251.115H353.733C356.477 251.115 358.701 248.892 358.701 246.148V100.137C358.701 91.64 351.813 84.7515 343.316 84.7515H121.884C113.387 84.7515 106.499 91.64 106.499 100.137V246.148C106.499 248.892 108.723 251.115 111.466 251.115H91.7021V68.5527H374.764V251.115Z" fill="#E5F2FD"/>
<path fill-rule="evenodd" clip-rule="evenodd" d="M438.737 302.357H28.012L92.5064 264.251L373.958 264.208L438.737 302.357Z" fill="#06ACCB"/>
<path fill-rule="evenodd" clip-rule="evenodd" d="M437.879 302.357H28.3007C27.9863 302.357 27.729 302.614 27.729 302.929V310.999C27.729 313.99 30.1761 316.438 33.1673 316.438H431.983C435.542 316.438 438.454 313.526 438.454 309.967V302.929C438.454 302.614 438.194 302.357 437.879 302.357Z" fill="#64E6FF"/>
<path fill-rule="evenodd" clip-rule="evenodd" d="M282.498 296.694H203.005C203.7 294.574 203.751 292.246 203.671 290.718C203.669 290.68 203.662 290.623 203.652 290.551H278.171C278.427 291.217 278.956 291.765 279.582 291.966L283.98 292.397C283.986 292.437 283.993 292.477 283.998 292.517L284.498 294.729C284.498 295.81 283.598 296.694 282.498 296.694Z" fill="#E9F6FF"/>
<path fill-rule="evenodd" clip-rule="evenodd" d="M178.573 273.373C178.247 272.992 177.813 272.729 177.332 272.648L170.764 272.245C170.776 272.078 170.814 271.909 170.883 271.742L171.971 269.119C172.217 268.523 172.799 268.135 173.443 268.135H181.069C180.439 269.212 179.482 271.014 178.573 273.373Z" fill="#E9F6FF"/>
<path fill-rule="evenodd" clip-rule="evenodd" d="M210.492 273.946H205.356C205.018 271.704 204.377 269.853 203.573 268.329C203.813 268.204 204.083 268.135 204.365 268.135H211.032C212.133 268.135 212.95 269.157 212.706 270.231L212.165 272.61C211.988 273.391 211.293 273.946 210.492 273.946Z" fill="#E9F6FF"/>
<path fill-rule="evenodd" clip-rule="evenodd" d="M227.137 273.946H218.391C217.14 273.946 216.212 272.784 216.489 271.563L216.923 269.654C217.124 268.766 217.914 268.135 218.825 268.135H226.703C227.614 268.135 228.404 268.766 228.605 269.654L229.039 271.563C229.316 272.784 228.388 273.946 227.137 273.946Z" fill="#E9F6FF"/>
<path fill-rule="evenodd" clip-rule="evenodd" d="M150.152 285.334C148.981 285.334 148.214 284.109 148.726 283.056L150.347 279.716L151.768 285.331L150.154 285.334C150.153 285.334 150.153 285.334 150.152 285.334Z" fill="#E9F6FF"/>
<path fill-rule="evenodd" clip-rule="evenodd" d="M166.471 271.982L154.461 271.246L155.538 269.028C155.803 268.482 156.357 268.135 156.964 268.135H165.692C166.822 268.135 167.589 269.284 167.156 270.328L166.471 271.982Z" fill="#E9F6FF"/>
<path fill-rule="evenodd" clip-rule="evenodd" d="M320.979 273.946H317.331C317.604 272.721 317.77 271.907 317.77 271.907C317.183 271.061 316.215 270.812 315.276 270.812C313.924 270.812 312.633 271.33 312.633 271.33L312.16 272.958L310.795 269.992C310.396 269.124 311.029 268.135 311.984 268.135H319.355C319.847 268.135 320.298 268.411 320.522 268.851L322.146 272.043C322.589 272.914 321.957 273.946 320.979 273.946Z" fill="#E9F6FF"/>
<path fill-rule="evenodd" clip-rule="evenodd" d="M305.69 273.946H304.005L303.765 272.854C303.579 271.89 302.855 271.132 301.977 270.985L296.34 270.639L296.235 270.388C295.787 269.317 296.573 268.135 297.735 268.135H304.513C305.148 268.135 305.724 268.504 305.99 269.082L307.167 271.641C307.663 272.717 306.876 273.946 305.69 273.946Z" fill="#E9F6FF"/>
<path fill-rule="evenodd" clip-rule="evenodd" d="M259.543 273.946H251.164C250.533 273.946 249.974 273.538 249.781 272.936L248.852 270.029C248.552 269.092 249.251 268.135 250.234 268.135H258.48C259.089 268.135 259.634 268.516 259.843 269.088L260.906 271.995C261.253 272.943 260.551 273.946 259.543 273.946Z" fill="#E9F6FF"/>
<path fill-rule="evenodd" clip-rule="evenodd" d="M243.348 273.946H235.166C234.288 273.946 233.528 273.339 233.334 272.483L232.867 270.43C232.6 269.254 233.494 268.135 234.7 268.135H242.691C243.508 268.135 244.232 268.663 244.481 269.441L245.137 271.495C245.525 272.707 244.621 273.946 243.348 273.946Z" fill="#E9F6FF"/>
<path fill-rule="evenodd" clip-rule="evenodd" d="M273.953 273.946H266.999C266.316 273.946 265.706 273.519 265.472 272.878L264.536 270.319C264.148 269.258 264.934 268.135 266.063 268.135H274.958C275.626 268.135 276.226 268.543 276.471 269.165L276.575 269.428L275.595 269.368C275.488 269.35 275.383 269.342 275.281 269.342C274.21 269.342 273.396 270.285 273.393 271.429C273.393 271.667 273.427 271.913 273.502 272.161L273.953 273.946Z" fill="#E9F6FF"/>
<path fill-rule="evenodd" clip-rule="evenodd" d="M291.907 270.368L281.11 269.706C281.138 268.868 281.822 268.135 282.736 268.135H289.89C290.546 268.135 291.138 268.529 291.39 269.133L291.907 270.368Z" fill="#E9F6FF"/>
<path fill-rule="evenodd" clip-rule="evenodd" d="M334.05 285.074C333.558 285.074 333.107 284.797 332.884 284.359L330.68 280.029C330.237 279.158 330.87 278.126 331.847 278.126H340.032C340.456 278.126 340.854 278.331 341.099 278.676L344.168 282.994C344.784 283.86 344.166 285.06 343.103 285.061L334.053 285.074C334.052 285.074 334.051 285.074 334.05 285.074Z" fill="#E9F6FF"/>
<path fill-rule="evenodd" clip-rule="evenodd" d="M335.2 273.946H328.388C327.895 273.946 327.444 273.669 327.221 273.23L325.596 270.038C325.153 269.167 325.786 268.135 326.763 268.135H332.931C333.355 268.135 333.752 268.34 333.998 268.686L336.267 271.878C336.883 272.745 336.264 273.946 335.2 273.946Z" fill="#E9F6FF"/>
<path fill-rule="evenodd" clip-rule="evenodd" d="M318.583 285.096C318.072 285.096 317.607 284.798 317.393 284.334L315.668 280.584C315.897 279.799 316.12 278.97 316.33 278.149C316.41 278.134 316.494 278.126 316.58 278.126H324.439C324.931 278.126 325.382 278.402 325.606 278.841L327.814 283.182C328.257 284.052 327.626 285.083 326.649 285.085L318.585 285.096C318.584 285.096 318.583 285.096 318.583 285.096Z" fill="#E9F6FF"/>
<path fill-rule="evenodd" clip-rule="evenodd" d="M147.728 273.946H139.628C138.363 273.946 137.607 272.539 138.306 271.484L140.055 268.845C140.349 268.402 140.845 268.135 141.377 268.135H149.01C150.18 268.135 150.947 269.36 150.436 270.413L150.11 271.084C149.309 271.334 148.75 272.144 148.748 273.092C148.748 273.238 148.761 273.388 148.788 273.539C148.502 273.796 148.126 273.946 147.728 273.946Z" fill="#E9F6FF"/>
<path fill-rule="evenodd" clip-rule="evenodd" d="M132.064 285.359C130.799 285.359 130.043 283.952 130.742 282.898L133.434 278.835C133.728 278.392 134.224 278.126 134.756 278.126H144.158C145.329 278.126 146.095 279.351 145.584 280.404L143.618 284.452C143.353 284.998 142.8 285.344 142.194 285.345L132.066 285.359C132.065 285.359 132.064 285.359 132.064 285.359Z" fill="#E9F6FF"/>
<path fill-rule="evenodd" clip-rule="evenodd" d="M132.366 273.62L132.742 272.136C132.816 271.888 132.851 271.642 132.851 271.405C132.849 270.26 132.034 269.317 130.963 269.317C130.86 269.317 130.756 269.326 130.649 269.344L123.339 269.792L124.281 268.845C124.575 268.402 125.071 268.135 125.602 268.135H133.235C134.406 268.135 135.173 269.36 134.661 270.413L132.891 273.024C132.735 273.293 132.557 273.485 132.366 273.62Z" fill="#E9F6FF"/>
<path fill-rule="evenodd" clip-rule="evenodd" d="M352.644 273.946H344.544C343.937 273.946 343.219 273.872 342.73 273.024L340.959 270.413C340.448 269.36 341.215 268.135 342.386 268.135H350.018C350.55 268.135 351.046 268.402 351.34 268.845L353.966 271.484C354.665 272.539 353.909 273.946 352.644 273.946Z" fill="#E9F6FF"/>
<path fill-rule="evenodd" clip-rule="evenodd" d="M361.961 285.359C361.96 285.359 361.96 285.359 361.959 285.359L351.83 285.345C351.224 285.344 350.671 284.998 350.406 284.452L347.564 280.404C347.052 279.351 347.819 278.126 348.99 278.126H358.392C358.924 278.126 359.42 278.392 359.714 278.835L363.282 282.898C363.981 283.952 363.225 285.359 361.961 285.359Z" fill="#E9F6FF"/>
<path fill-rule="evenodd" clip-rule="evenodd" d="M305.253 279.592L304.929 278.126H307.207C306.767 278.468 306.074 278.987 305.253 279.592ZM310.044 278.421L309.098 278.126H309.11C309.451 278.126 309.775 278.232 310.044 278.421Z" fill="#E9F6FF"/>
<path fill-rule="evenodd" clip-rule="evenodd" d="M215.765 285.241C214.545 285.241 213.64 284.109 213.91 282.919L214.663 279.606C214.859 278.74 215.629 278.126 216.517 278.126H229.011C229.899 278.126 230.668 278.74 230.865 279.606L231.613 282.899C231.883 284.088 230.98 285.22 229.762 285.221L215.767 285.241C215.766 285.241 215.765 285.241 215.765 285.241Z" fill="#E9F6FF"/>
<path fill-rule="evenodd" clip-rule="evenodd" d="M203.738 285.258C204.744 283.795 205.405 281.895 205.557 279.446C205.585 278.995 205.603 278.555 205.611 278.126H208.615C209.792 278.126 210.665 279.219 210.404 280.367L209.619 283.824C209.43 284.658 208.688 285.251 207.832 285.253L203.738 285.258Z" fill="#E9F6FF"/>
<path fill-rule="evenodd" clip-rule="evenodd" d="M237.391 285.211C236.709 285.211 236.116 284.738 235.965 284.072L235.02 279.912C234.813 278.997 235.508 278.126 236.446 278.126H246.19C246.826 278.126 247.389 278.537 247.583 279.142L248.909 283.289C249.21 284.231 248.508 285.195 247.518 285.196L237.393 285.211C237.393 285.211 237.392 285.211 237.391 285.211Z" fill="#E9F6FF"/>
<path fill-rule="evenodd" clip-rule="evenodd" d="M271.101 285.163C270.418 285.163 269.809 284.737 269.574 284.095L268.19 280.31C267.802 279.249 268.587 278.126 269.717 278.126H275.011L276.789 285.155L271.103 285.163C271.102 285.163 271.102 285.163 271.101 285.163Z" fill="#E9F6FF"/>
<path fill-rule="evenodd" clip-rule="evenodd" d="M254.849 285.186C254.165 285.186 253.557 284.743 253.348 284.09L252.099 280.183C251.773 279.166 252.533 278.126 253.601 278.126H262.046C262.708 278.126 263.299 278.539 263.527 279.161L264.951 283.056C265.327 284.083 264.567 285.172 263.472 285.174L254.852 285.186C254.851 285.186 254.851 285.186 254.849 285.186Z" fill="#E9F6FF"/>
<path fill-rule="evenodd" clip-rule="evenodd" d="M353.733 251.115H111.466C108.723 251.115 106.5 248.892 106.5 246.148V100.136C106.5 91.6399 113.387 84.7515 121.884 84.7515H343.316C351.813 84.7515 358.701 91.6399 358.701 100.136V246.148C358.701 248.892 356.477 251.115 353.733 251.115Z" fill="#D3E1FE"/>
<path fill-rule="evenodd" clip-rule="evenodd" d="M123 221H213V136H123V221Z" fill="#5A35DA"/>
<path fill-rule="evenodd" clip-rule="evenodd" d="M160.673 202.994C159.296 203.088 158.102 202.051 158.006 200.673C157.91 199.296 158.949 198.102 160.326 198.006C161.703 197.91 162.897 198.949 162.994 200.326C163.09 201.705 162.05 202.898 160.673 202.994Z" fill="white"/>
<path fill-rule="evenodd" clip-rule="evenodd" d="M139.001 201.136L157.434 179.914L143.573 173.97C142.538 173.498 141.878 172.428 141.9 171.255C141.949 170.068 142.689 169.031 143.769 168.633L190.213 152.144C191.22 151.85 192.257 152.002 192.983 152.633C193.708 153.26 194.131 154.364 193.964 155.283L184.267 203.652C184.124 204.907 183.165 205.764 182.038 205.959C180.914 206.15 179.741 205.667 179.103 204.688L171.263 191.981L166.316 197.641L162.066 193.858L169.425 185.312C169.953 184.709 170.614 184.438 171.412 184.383L171.868 184.352C172.783 184.399 173.613 184.91 174.013 185.678L180.17 195.552L187.401 159.138L152.521 171.643L163.325 176.332C164.147 176.729 164.762 177.366 164.943 178.26C165.12 179.157 164.959 180.071 164.327 180.793L143.352 204.799L139 201.138L139.001 201.136Z" fill="white"/>
<path fill-rule="evenodd" clip-rule="evenodd" d="M106.765 101.873V99.0997C106.765 90.1292 112.134 82.8574 118.756 82.8574H346.578C353.201 82.8574 358.569 90.1292 358.569 99.0997V102.137L106.765 101.873Z" fill="#917CDA"/>
<path fill-rule="evenodd" clip-rule="evenodd" d="M195.436 86.4671C194.894 85.0963 195.714 83.5644 197.155 83.254C208.211 80.8716 209.66 92.7379 214.029 96.7847L252.847 134.609C253.589 134.846 254.32 135.08 255.061 135.317L295.391 122.899C300.091 127.251 301.691 128.238 299.567 139.919L297.102 150.125C292.379 155.225 290.011 156.908 279.393 159.032L258.289 165.815C252.821 167.572 246.815 166.115 242.787 162.02C227.898 146.883 220.847 135.959 219.383 133.643C219.271 133.466 213.903 124.347 213.841 124.148L204.722 100.79C203.109 95.8796 205.648 97.3975 195.936 87.245C195.723 87.022 195.549 86.7543 195.436 86.4671Z" fill="#FDC6B2"/>
<path fill-rule="evenodd" clip-rule="evenodd" d="M276.11 250.175C273.982 244.504 270.294 226.361 268.086 232.161C266.172 237.19 264.173 241.117 262.245 250.237L276.11 250.175Z" fill="#2C2B2B"/>
<path fill-rule="evenodd" clip-rule="evenodd" d="M269.507 250.179C268.437 243.2 267.312 239.235 266.067 231.546C265.578 228.527 269.89 235.615 272.822 236.239C283.981 238.61 308.633 230.764 344.955 224.62C347.87 224.126 348.943 235.996 348.4 238.964C347.74 242.577 347.1 243.999 346.408 250.164L269.507 250.179Z" fill="#3C3C3C"/>
<path fill-rule="evenodd" clip-rule="evenodd" d="M354.133 132.939C353.216 129.704 348.782 116.649 328.594 106.744C327.837 106.373 325.935 103.478 325.306 104.132L308.718 121.357C307.229 122.903 304.998 121.554 304.998 119.108V111.024C304.998 109.063 303.503 107.667 302.034 108.256L287.268 114.18C287.124 114.237 286.989 114.31 286.858 114.402C285.591 115.291 271.972 120.321 262.529 130.941C261.598 131.988 260.857 132.47 261.525 133.804L270.392 151.529C270.715 152.174 274.998 159.894 274.871 160.642L273.793 170.353C273.704 170.875 273.73 171.418 273.868 171.923L264.903 235.821C265.182 236.842 286.509 238.357 287.348 238.515L309.57 240.535C319.894 240.759 347.771 233.257 348.252 232.286L352.37 170.881C352.577 170.463 352.697 169.985 352.719 169.491L354.26 134.068C354.277 133.684 354.235 133.301 354.133 132.939Z" fill="white"/>
<path fill-rule="evenodd" clip-rule="evenodd" d="M297.119 244.73C302.648 241.073 340.964 233.618 357.721 212.228C364.579 203.475 366.809 185.72 366.45 171.191C364.977 111.458 323.599 103.037 323.599 103.037C321.334 102.373 322.359 95.101 321.959 93.759C321.91 93.5934 322.73 92.4541 322.697 92.2841L318.897 84.3608C318.808 83.9092 318.662 83.4708 318.463 83.0559L313.972 73.7288C313.007 71.7253 310.913 70.519 308.696 70.6889L291.038 66.7358C288.132 66.9588 285.929 69.4486 286.06 72.3596L286.697 93.1047C287.029 103.326 289.2 105.931 292.674 106.8L302.773 106.112C304.166 107.222 302.902 109.162 302.772 110.938V119.555C302.772 124.582 304.927 124.582 305.643 124L328.176 147.899C328.292 148.023 328.405 148.153 328.511 148.286C355.685 182.592 308.291 225.094 294.41 234.573C294.41 234.573 285.268 242.022 283.576 244.053C282.709 245.093 276.805 253.194 280.19 261.32C283.576 269.445 290.347 257.934 290.347 253.533C290.347 249.131 297.119 244.73 297.119 244.73Z" fill="#FDC6B2"/>
<path fill-rule="evenodd" clip-rule="evenodd" d="M364.752 145.444C365.014 146.134 334.358 164.115 334.358 164.115L303.212 126.572L325.262 103.412C325.262 103.412 350.424 107.668 364.752 145.444Z" fill="white"/>
<path fill-rule="evenodd" clip-rule="evenodd" d="M304.836 83.425C304.799 81.6074 304.169 79.5968 303.479 77.9224C302.56 75.692 300.508 74.1345 298.109 73.884L290.332 73.0722C287.911 72.8192 284.237 70.655 283.337 68.3922C281.488 63.7446 282.108 53.0476 294.966 53.4006C313.771 53.9168 301.806 66.4506 318.09 67.2194C334.374 67.9877 321.584 77.2953 322.604 83.9037C323.624 90.5125 328.133 93.6565 323.639 96.3529C319.145 99.0489 311.482 94.286 315.053 89.7281C319.759 83.7198 314.484 77.7054 310.616 80.3691C309.215 81.3341 308.675 83.0013 308.557 84.7351L304.836 83.425Z" fill="#592309"/>
<path fill-rule="evenodd" clip-rule="evenodd" d="M312.699 279.25C312.699 279.25 313.281 280.27 307.581 283.222C301.88 286.174 296.333 288.016 294.416 289.021C292.5 290.026 288.368 290.083 288.969 288.151C289.502 286.435 292.594 286.184 292.594 286.184C292.594 286.184 291.258 285.046 291.588 284.691C291.918 284.335 293.807 285.622 294.402 286.039C294.998 286.454 296.128 285.962 298.772 284.194C301.734 282.213 307.734 277.809 307.721 277.695L312.699 279.25Z" fill="#EAAA9B"/>
<path fill-rule="evenodd" clip-rule="evenodd" d="M284.753 317.815L283.169 327.43L280.342 326.974L280.476 317.005L284.603 317.676L284.753 317.815Z" fill="#FDC6B2"/>
<path fill-rule="evenodd" clip-rule="evenodd" d="M283.329 326.1L283.156 330.308L275.149 329.979C275.149 329.979 274.598 328.07 277.955 327.987C277.955 327.987 280.204 327.67 280.215 325.972L283.329 326.1Z" fill="#FC9D33"/>
<path fill-rule="evenodd" clip-rule="evenodd" d="M298.433 317.517L297.641 327.366L294.667 327.154L293.679 317.005L298.27 317.39L298.433 317.517Z" fill="#FDC6B2"/>
<path fill-rule="evenodd" clip-rule="evenodd" d="M297.691 326.01L297.87 330.276L289.752 330.618C289.752 330.618 289.034 328.734 292.419 328.369C292.419 328.369 294.665 327.86 294.533 326.142L297.691 326.01Z" fill="#FC9D33"/>
<path fill-rule="evenodd" clip-rule="evenodd" d="M292.565 290.261C292.424 289.894 292.091 289.647 291.718 289.635C289.576 289.566 283.484 289.628 282.642 295.143C281.824 300.508 280.166 316.72 279.892 322.169C279.872 322.569 280.292 322.753 280.672 322.754L283.681 322.75C284.233 322.75 284.275 322.351 284.597 321.672L292.601 298.098L293.249 292.126C293.239 292.042 293.218 291.959 293.188 291.879L292.565 290.261Z" fill="#CB7B22"/>
<path fill-rule="evenodd" clip-rule="evenodd" d="M326.148 293.158C326.417 295.988 326.148 300.119 321.13 301.142C321.004 301.167 319.703 301.422 319.575 301.408L300.061 302.089C299.738 302.052 299.428 302.137 299.432 302.473C299.434 302.668 299.245 302.936 299.562 303.936C300.031 305.417 300.689 310.259 299.966 314.759L298.692 321.801C298.584 322.418 298.333 322.959 297.748 323.101L295.36 323.152C294.739 323.302 294.095 322.952 293.864 322.339L289.862 297.2C289.862 297.2 288.425 292.889 293.724 291.856C301.099 290.419 317.316 285.618 322.106 285.748C322.777 285.767 325.973 291.323 326.148 293.158Z" fill="#FC9D33"/>
<path fill-rule="evenodd" clip-rule="evenodd" d="M314.258 257.281L316.042 264.168C316.042 264.168 311.9 267.749 311.136 266.612C309.7 264.475 310.794 259.215 309.495 258.664C308.354 258.18 312.68 254.097 314.258 257.281Z" fill="#FDC6B2"/>
<path fill-rule="evenodd" clip-rule="evenodd" d="M322.825 286.288C322.825 286.288 318.084 280.086 320.111 271.591C321.521 265.682 323.377 260.566 317.614 260.675C315.948 260.707 315.282 260.162 315.282 260.162C315.282 260.162 315.475 262.272 315.088 263.29C314.692 264.326 312.241 266.577 311.221 266.087C310.201 265.597 310.354 261.673 310.354 261.673C310.354 261.673 309.189 262.132 308.401 263.879C308.236 264.244 306.978 267.251 306.327 268.814C305.253 271.389 305.028 272.653 305.53 275.397L309.756 288.039L322.825 286.288Z" fill="white"/>
<path fill-rule="evenodd" clip-rule="evenodd" d="M310.384 259.466L309.587 259.763C308.826 260.045 307.958 259.723 307.603 258.993C307.457 258.691 307.359 258.347 307.332 257.995L307.601 250.99C307.574 250.133 308.036 249.596 308.827 249.571L309.442 249.552C310.234 249.528 310.902 250.209 315.563 247.987L315.769 254.644C311.162 258.58 313.508 257.842 310.384 259.466Z" fill="#FDC6B2"/>
<path fill-rule="evenodd" clip-rule="evenodd" d="M327.723 271.429C329.494 268.607 328.497 264.99 326.915 263.405C326.275 262.764 325.513 262.266 324.678 261.934C323.872 261.614 323.537 261.347 323.335 261.012C322.868 260.238 323.686 258.788 323.152 258.325C322.481 257.744 320.02 256.773 319.685 253.867C319.351 250.961 317.356 246.658 312.988 247.076C308.62 247.494 307.567 250.147 307.567 250.147C306.649 253.057 312.445 254.435 312.445 254.435L315.179 262.262C315.179 262.262 316.318 262.806 318.02 264.46C319.897 266.283 319.414 270.196 319.414 270.196L319.394 273.078L319.521 276.094C319.521 276.094 324.025 277.326 327.723 271.429Z" fill="#080825"/>
<path fill-rule="evenodd" clip-rule="evenodd" d="M317.77 271.907C317.77 271.907 315.325 283.886 313.798 285.072C311.517 286.842 293.339 282.98 293.339 282.98C293.339 282.98 290.28 284.976 289.103 284.793C287.926 284.61 287.323 282.397 286.817 282.338C286.312 282.281 283.809 281.567 284.68 281.194C285.55 280.821 288.367 281.469 288.367 281.469C288.367 281.469 291.21 280.253 293.771 280.942C296.331 281.632 310.253 279.511 310.253 279.511L312.633 271.33C312.633 271.33 316.337 269.843 317.77 271.907Z" fill="#FDC6B2"/>
<path fill-rule="evenodd" clip-rule="evenodd" d="M316.389 275.296C316.756 275.383 317.135 275.202 317.297 274.86C317.949 273.491 319.214 269.173 317.566 267.201C315.644 264.9 313.099 266.969 310.859 272.176C310.716 272.508 310.816 272.894 311.099 273.117C311.825 273.687 313.748 274.671 316.389 275.296Z" fill="white"/>
<path fill-rule="evenodd" clip-rule="evenodd" d="M317.611 291.601L306.3 294.557C305.958 294.661 296.192 291.283 295.884 291.109L279.602 286.54C279.384 286.416 279.243 286.199 279.223 285.957L278.642 285.943L318.506 289.707C318.593 290.403 318.31 291.389 317.611 291.601Z" fill="#385BFF"/>
<path fill-rule="evenodd" clip-rule="evenodd" d="M318.506 289.707L307.969 292.368L282.625 284.613L295.303 286.94L318.506 289.707Z" fill="#5F73FD"/>
<path fill-rule="evenodd" clip-rule="evenodd" d="M307.959 291.847L303.765 272.854C303.579 271.89 302.855 271.132 301.977 270.985L275.594 269.368C274.142 269.124 273.034 270.603 273.502 272.161L278.109 290.37C278.334 291.117 278.9 291.747 279.581 291.966L305.014 294.46C306.452 294.921 308.27 293.462 307.959 291.847Z" fill="#5A35DA"/>
<path fill-rule="evenodd" clip-rule="evenodd" d="M305.578 294.547C305.387 294.547 305.197 294.519 305.014 294.46L273.502 272.161C273.427 271.913 273.393 271.667 273.393 271.429C273.396 270.285 274.21 269.342 275.281 269.342C275.383 269.342 275.488 269.35 275.595 269.368L301.977 270.985C302.855 271.133 303.579 271.89 303.765 272.854L307.96 291.847C307.983 291.971 307.995 292.094 307.995 292.215C307.995 292.265 307.993 292.314 307.989 292.363C307.908 293.412 306.989 294.304 305.991 294.504C305.854 294.532 305.716 294.547 305.578 294.547Z" fill="#8096FF"/>
<path fill-rule="evenodd" clip-rule="evenodd" d="M286.858 284.596C285.384 282.931 285.539 280.385 287.204 278.91C288.87 277.436 291.416 277.591 292.89 279.257C294.365 280.922 294.21 283.468 292.545 284.943C290.879 286.417 288.333 286.262 286.858 284.596Z" fill="white"/>
<path fill-rule="evenodd" clip-rule="evenodd" d="M95.8962 275.049C95.8962 275.049 96.513 276.012 101.64 272.431C106.766 268.849 110.867 264.899 112.602 263.7C114.336 262.502 116.256 258.963 114.317 258.607C112.595 258.29 110.979 260.844 110.979 260.844C110.979 260.844 110.602 259.176 110.146 259.3C109.69 259.424 109.945 261.636 110.035 262.338C110.124 263.04 109.188 263.792 106.465 265.273C103.416 266.931 96.9008 270.113 96.809 270.049L95.8962 275.049Z" fill="#EAAA9B"/>
<path fill-rule="evenodd" clip-rule="evenodd" d="M94.2733 258.968C92.6704 259.771 90.7024 259.116 89.8994 257.514L87.9434 253.607C87.1403 252.004 87.795 250.036 89.3979 249.234C91.0008 248.431 92.9688 249.086 93.7715 250.688L95.7278 254.594C96.5305 256.197 95.8758 258.165 94.2733 258.968Z" fill="#FDC6B2"/>
<path fill-rule="evenodd" clip-rule="evenodd" d="M94.3379 265.499H88.9941C88.5792 265.499 88.2397 265.147 88.2397 264.718V253.327C88.2397 252.898 88.5792 252.546 88.9941 252.546H92.6404C93.0557 252.546 93.3948 252.898 93.3948 253.327L93.5121 261.789C93.5121 262.219 94.7528 265.499 94.3379 265.499Z" fill="#FDC6B2"/>
<path fill-rule="evenodd" clip-rule="evenodd" d="M93.2344 249.615C93.2344 249.615 90.6753 246.951 88.2222 247.972C86.2638 248.786 82.7664 250.823 83.6408 256.443C83.887 258.024 82.6658 259.478 81.0665 259.438L80.9616 259.433C79.5701 259.348 77.6121 259.611 77.6891 263.42C77.6891 263.42 73.7951 266.357 76.9231 270.442C79.8972 274.327 85.6052 273.315 85.6052 273.315C85.6052 273.315 84.9198 266.997 85.7664 266.411C88.0287 264.845 90.6753 261.679 89.5786 258.597C89.5786 258.597 88.8473 255.501 88.892 255.41C88.9371 255.32 87.7024 249.744 93.2344 249.615Z" fill="#771EBC"/>
<path fill-rule="evenodd" clip-rule="evenodd" d="M96.139 288.242C98.2837 279.007 95.8386 277.195 97.9773 275.929C98.0307 275.897 98.083 275.865 98.1337 275.831C99.9947 274.622 100.465 271.895 99.1992 270.021L93.6021 261.917C93.0911 261.16 94.7056 264.878 93.8766 265.173C92.172 265.78 89.4069 262.096 89.4069 262.096C82.6761 264.456 83.8785 272.061 84.8858 275.681C85.5632 278.115 85.69 280.699 85.2081 283.203C84.9931 284.32 84.8327 284.659 84.4402 285.407C84.1374 285.984 84.5024 286.686 85.1479 286.772L96.139 288.242Z" fill="#FACE41"/>
<path fill-rule="evenodd" clip-rule="evenodd" d="M117.3 331.606L109.812 331.061L109.965 326.686C110.007 326.694 110.052 326.701 110.097 326.705L112.397 326.831C112.467 326.82 112.521 326.799 112.562 326.769C112.489 328.549 114.296 329.114 114.296 329.114C117.078 329.554 117.3 331.606 117.3 331.606Z" fill="#797FF6"/>
<path fill-rule="evenodd" clip-rule="evenodd" d="M107.043 333.08L99.6245 331.603L100.098 327.494C100.195 327.652 100.326 327.783 100.492 327.871L101.91 328.161C102.054 328.238 102.204 328.275 102.35 328.275C102.47 328.275 102.589 328.25 102.7 328.202C102.846 329.594 104.247 330.222 104.247 330.222C106.984 331.007 107.043 333.08 107.043 333.08Z" fill="#797FF6"/>
<path fill-rule="evenodd" clip-rule="evenodd" d="M106.898 291.438C106.97 291.007 105.643 290.617 105.966 290.554C107.816 290.192 114.419 288.909 114.637 295.226C114.844 301.264 113.538 321.665 112.76 326.073C112.682 326.51 112.727 326.78 112.397 326.831L110.097 326.705C109.482 326.646 109.224 326.236 109.197 325.578L106.691 300.873L106.46 292.778C106.457 292.681 106.464 292.585 106.48 292.491L106.898 291.438Z" fill="#292828"/>
<path fill-rule="evenodd" clip-rule="evenodd" d="M84.2325 286.075C83.82 289.11 80.5339 297.401 85.3355 299.745C85.4417 299.797 87.1882 300.376 87.3003 300.385L102.083 301.171C102.366 301.194 102.799 301.265 103.061 301.397C103.253 301.495 103.661 302.822 102.596 304.986C101.914 306.371 100.329 309.208 99.8672 315.784L99.9067 326.325C99.8137 326.972 99.9996 327.608 100.492 327.871L101.91 328.16C102.432 328.44 103.022 328.191 103.281 327.581L112.296 298.978C112.296 298.978 115.778 292.191 108.343 290.066C101.899 288.225 89.5718 285.912 85.4221 285.127C84.8417 285.017 84.3298 285.356 84.2325 286.075Z" fill="#3C3C3C"/>
<path fill-rule="evenodd" clip-rule="evenodd" d="M88.0351 255.766C87.3238 255.052 87.1491 254.073 87.645 253.579C88.1409 253.085 89.1198 253.263 89.8311 253.977C90.5425 254.691 90.7172 255.671 90.2213 256.165C89.7254 256.659 88.7464 256.481 88.0351 255.766Z" fill="#FDC6B2"/>
<path fill-rule="evenodd" clip-rule="evenodd" d="M89.4275 272.326C89.4275 272.326 98.3852 280.647 100.317 280.722C103.202 280.835 115.74 267.118 115.74 267.118C115.74 267.118 119.389 266.96 120.239 266.127C121.09 265.294 120.293 263.143 120.671 262.801C121.048 262.46 122.667 260.423 121.743 260.626C120.818 260.83 118.904 262.996 118.904 262.996C118.904 262.996 115.884 263.661 114.203 265.711C112.521 267.761 99.9646 274.138 99.9646 274.138L93.2689 268.868C93.2689 268.868 89.3916 269.814 89.4275 272.326Z" fill="#FDC6B2"/>
<path fill-rule="evenodd" clip-rule="evenodd" d="M88.6327 291.576L99.9438 294.532C100.286 294.636 110.052 291.258 110.36 291.084L126.641 286.515C126.86 286.391 127.001 286.174 127.021 285.932L127.603 285.918L87.7383 289.682C87.6509 290.378 87.9334 291.364 88.6327 291.576Z" fill="#385BFF"/>
<path fill-rule="evenodd" clip-rule="evenodd" d="M87.7383 289.682L98.275 292.343L123.62 284.588L110.941 286.915L87.7383 289.682Z" fill="#5F73FD"/>
<path fill-rule="evenodd" clip-rule="evenodd" d="M98.2842 291.823L102.479 272.83C102.665 271.865 103.389 271.108 104.267 270.961L130.649 269.344C132.102 269.1 133.21 270.579 132.742 272.136L128.135 290.346C127.911 291.092 127.344 291.722 126.662 291.941L101.23 294.435C99.7918 294.897 97.9742 293.438 98.2842 291.823Z" fill="#5A35DA"/>
<path fill-rule="evenodd" clip-rule="evenodd" d="M100.666 294.521C100.528 294.521 100.39 294.507 100.253 294.48C99.2556 294.28 98.3357 293.387 98.2551 292.338C98.2515 292.289 98.2495 292.24 98.2495 292.191C98.2491 292.069 98.2607 291.947 98.2842 291.823L102.479 272.83C102.665 271.865 103.389 271.108 104.267 270.961L130.649 269.344C130.756 269.326 130.861 269.317 130.963 269.317C132.034 269.317 132.849 270.26 132.851 271.405C132.851 271.642 132.817 271.888 132.742 272.136L101.23 294.435C101.047 294.494 100.857 294.521 100.666 294.521Z" fill="#8096FF"/>
<path fill-rule="evenodd" clip-rule="evenodd" d="M119.385 284.572C120.86 282.906 120.706 280.36 119.04 278.886C117.374 277.411 114.828 277.566 113.354 279.232C111.879 280.897 112.034 283.443 113.699 284.918C115.365 286.392 117.911 286.238 119.385 284.572Z" fill="white"/>
<path fill-rule="evenodd" clip-rule="evenodd" d="M161.945 325.169L161.845 330.703L153.197 330.6C153.197 330.6 152.763 328.573 155.193 328.619C157.622 328.664 159.142 329.327 159.245 325.09L161.945 325.169Z" fill="#421AAA"/>
<path fill-rule="evenodd" clip-rule="evenodd" d="M161.835 331.269L153.154 330.927L153.167 330.265L161.847 330.606L161.835 331.269Z" fill="#2F1689"/>
<path fill-rule="evenodd" clip-rule="evenodd" d="M175.027 332.134L166.113 332.256L166.128 331.596L175.042 331.473L175.027 332.134Z" fill="#2F1689"/>
<path fill-rule="evenodd" clip-rule="evenodd" d="M174.97 326.086L175.033 331.531L166.116 331.663C166.116 331.663 165.356 329.221 168.794 329.31C173.265 329.426 171.844 328.43 171.957 326.192C172.07 323.953 174.97 326.086 174.97 326.086Z" fill="#421AAA"/>
<path fill-rule="evenodd" clip-rule="evenodd" d="M170.027 290.089C169.884 289.712 169.546 289.458 169.167 289.446C166.996 289.375 160.821 289.438 159.968 295.101C159.138 300.609 158.373 319.792 158.536 324.662C158.549 325.073 159.035 325.292 159.42 325.293L162.471 325.289C163.03 325.29 163.073 324.88 163.399 324.183L170.843 299.069L170.72 292.004C170.709 291.917 170.689 291.832 170.657 291.75L170.027 290.089Z" fill="#6E0BAF"/>
<path fill-rule="evenodd" clip-rule="evenodd" d="M203.671 290.718C203.825 293.667 203.492 299.6 198.981 301.259C198.859 301.304 197.535 301.547 197.405 301.532L177.625 302.232C177.297 302.195 176.984 302.281 176.988 302.626C176.99 302.827 177.082 302.929 177.404 303.955C177.88 305.475 178.672 310.69 177.94 315.311L175.918 325.606C175.809 326.239 175.555 326.795 174.961 326.94L172.905 327.039C172.275 327.192 171.623 326.833 171.389 326.204L166.49 297.33C166.49 297.33 162.433 289.648 171.21 289.211C178.817 288.831 196.584 283.482 201.44 283.615C202.12 283.634 203.634 290.021 203.671 290.718Z" fill="#771EBC"/>
<path fill-rule="evenodd" clip-rule="evenodd" d="M181.779 266.996C181.779 266.996 175.548 275.924 176.097 287.971L186.591 286.947C186.591 286.947 187.664 276.318 187.605 274.532C187.546 272.745 181.852 267.587 181.852 267.587L181.779 266.996Z" fill="#783C46"/>
<path fill-rule="evenodd" clip-rule="evenodd" d="M203.123 267.597C202.883 266.933 201.451 263.622 196.234 261.615C196.038 261.539 195.817 261.579 195.656 261.714L191.403 265.281C191.021 265.602 190.444 265.327 190.441 264.824L190.431 263.161C190.428 262.758 190.041 262.473 189.663 262.596L185.865 263.836C185.828 263.848 185.793 263.863 185.759 263.883C185.434 264.067 183.69 265.019 181.269 267.217C181.031 267.434 181.096 268.124 181.269 268.398L183.13 271.356C183.214 271.488 185.095 274.38 185.063 274.534L182.776 279.909C180.372 286.253 181.184 286.848 181.22 286.952L186.411 286.944C186.484 287.153 186.666 287.305 186.882 287.336L194.332 288.408C194.563 288.441 194.79 288.333 194.913 288.133L202.719 275.404C202.772 275.318 202.802 275.219 202.807 275.118L203.158 267.829C203.162 267.75 203.151 267.671 203.123 267.597Z" fill="#E24923"/>
<path fill-rule="evenodd" clip-rule="evenodd" d="M195.214 261.467C195.214 261.467 206.525 263.827 205.557 279.446C204.649 294.093 185.52 289.089 183.465 288.568C183.356 288.54 183.246 288.527 183.134 288.526L180.031 288.805C178.245 288.799 178.705 285.938 180.488 285.84C181.509 285.784 182.505 285.804 184.053 286.334C190.707 288.609 203.618 282.255 196.556 273.31L196.469 273.21L190.621 266.983C190.438 267.137 189.882 267.14 189.874 265.824L189.86 263.566C189.89 263.101 190.323 262.317 189.962 262.028L187.972 262.476C187.241 262.353 186.646 261.804 186.333 260.86C186.033 259.95 185.774 258.917 185.761 258.669L185.01 253.893C184.982 253.332 185.542 253.362 186.139 253.392C186.353 253.403 186.572 253.414 186.77 253.398L191.316 253.017C191.889 252.969 192.432 253.282 192.684 253.805L193.857 256.242C193.909 256.35 193.947 256.465 193.971 256.583L194.964 258.652C194.972 258.697 194.763 258.996 194.776 259.04C194.881 259.39 194.629 261.297 195.214 261.467Z" fill="#783C46"/>
<path fill-rule="evenodd" clip-rule="evenodd" d="M203.512 267.682C203.601 267.852 197.323 274.349 197.323 274.349L190.254 267.326L195.215 261.467C195.215 261.467 201.074 263.06 203.512 267.682Z" fill="#E24923"/>
<path fill-rule="evenodd" clip-rule="evenodd" d="M190.254 256.071C190.147 255.673 189.946 255.269 189.744 254.927C189.423 254.386 188.839 254.064 188.218 254.093L186.205 254.189C185.578 254.219 184.558 253.804 184.24 253.253C183.588 252.122 183.329 249.328 186.619 248.913C191.43 248.307 188.87 252.023 193.049 251.581C197.228 251.139 194.332 254.052 194.85 255.723C195.367 257.394 195.723 258.516 194.683 259.391C193.643 260.266 192.421 258.849 193.153 257.529C194.118 255.787 192.539 254.438 191.658 255.28C191.413 255.514 191.313 255.835 191.297 256.176L190.254 256.071Z" fill="#5C0FB5"/>
<path fill-rule="evenodd" clip-rule="evenodd" d="M192.966 293.264L181.655 296.22C181.313 296.323 171.547 292.945 171.239 292.771L154.957 288.202C154.739 288.079 154.597 287.862 154.577 287.62L153.996 287.605L193.861 291.37C193.948 292.065 193.665 293.051 192.966 293.264Z" fill="#385BFF"/>
<path fill-rule="evenodd" clip-rule="evenodd" d="M193.86 291.37L183.323 294.031L157.979 286.275L170.658 288.602L193.86 291.37Z" fill="#5F73FD"/>
<path fill-rule="evenodd" clip-rule="evenodd" d="M183.314 293.511L179.119 274.517C178.933 273.553 178.21 272.795 177.332 272.648L150.949 271.031C149.497 270.787 148.388 272.266 148.856 273.824L153.463 292.033C153.688 292.78 154.255 293.41 154.936 293.629L180.368 296.123C181.807 296.584 183.625 295.125 183.314 293.511Z" fill="#5A35DA"/>
<path fill-rule="evenodd" clip-rule="evenodd" d="M180.933 296.209C180.742 296.209 180.552 296.182 180.369 296.123L148.857 273.824C148.828 273.728 148.805 273.633 148.788 273.539C148.761 273.388 148.748 273.238 148.748 273.092C148.75 271.948 149.565 271.004 150.635 271.004C150.738 271.004 150.843 271.013 150.949 271.031L177.332 272.648C178.21 272.795 178.934 273.552 179.119 274.517L183.314 293.51C183.338 293.634 183.349 293.757 183.349 293.878C183.349 293.928 183.347 293.977 183.343 294.025C183.263 295.075 182.343 295.967 181.346 296.167C181.209 296.195 181.07 296.209 180.933 296.209Z" fill="#8096FF"/>
<path fill-rule="evenodd" clip-rule="evenodd" d="M162.213 286.259C160.738 284.594 160.893 282.048 162.559 280.573C164.225 279.098 166.77 279.254 168.245 280.919C169.72 282.585 169.565 285.13 167.899 286.605C166.233 288.08 163.688 287.925 162.213 286.259Z" fill="white"/>
</svg>
